<svg width="423" height="431" viewBox="0 0 423 431" fill="none" xmlns="http://www.w3.org/2000/svg">
<path d="M73.3085 176.445C66.7207 175.717 64.2662 167.356 63.3822 161.921C63.3126 161.495 62.5853 161.504 62.508 161.921C61.7459 165.985 60.6279 170.374 58.0903 173.731C56.6841 175.383 54.9182 176.483 52.7905 177.024C52.3147 177.175 52.3844 177.896 52.9105 177.892C60.479 177.855 62.3049 185.708 63.3068 191.541C63.3938 192.047 64.1868 191.905 64.1965 191.424C64.3203 185.748 66.2565 177.617 73.3085 177.33C73.9043 177.306 73.8772 176.508 73.3085 176.445Z" fill="#BA1B2E"/>
<path d="M126.986 148.938C122.859 148.481 121.331 143.139 120.779 139.743C120.71 139.317 119.983 139.326 119.905 139.743C119.42 142.333 118.708 145.125 117.093 147.266C116.215 148.293 115.116 148.978 113.789 149.315C113.313 149.466 113.383 150.187 113.909 150.183C118.661 150.16 119.789 155.154 120.418 158.816C120.505 159.321 121.298 159.18 121.307 158.699C121.385 155.156 122.571 150.002 126.986 149.823C127.582 149.798 127.557 149.002 126.986 148.938Z" fill="#BA1B2E"/>
<path d="M104.538 24.9673C96.2074 24.1712 93.0179 13.4312 91.9135 6.57747C91.8439 6.15111 91.1166 6.16055 91.0393 6.57747C90.0915 11.6805 88.7085 17.3193 85.4572 21.4923C83.4707 23.4977 81.5095 24.8673 78.7107 25.6936C78.2329 25.8351 78.3064 26.5765 78.8306 26.5614C88.2424 26.3124 90.7897 36.4468 92.047 43.8476C92.1321 44.3513 92.927 44.2117 92.9367 43.7306C93.0798 36.5543 95.5614 26.1049 104.538 25.8521C105.132 25.8351 105.111 25.022 104.538 24.9673Z" fill="#BA1B2E"/>
<path d="M90.5944 123.308C88.873 128.96 91.4997 135.125 90.9329 140.858C90.813 142.079 89.0761 142.798 88.3817 141.532C88.1883 141.179 87.9949 140.826 87.8015 140.473C87.4958 140.355 87.2077 140.164 86.9949 139.811C83.4785 133.952 78.3181 125.187 70.353 125.07C57.2779 124.879 68.3125 137.949 71.943 141.294C81.5327 150.129 91.1495 158.937 96.8612 170.565C97.985 166.809 98.5924 162.753 99.3544 159.058C100.875 151.683 102.271 144.182 102.621 136.655C102.786 133.135 102.732 129.515 101.573 126.132C100.074 121.755 92.7433 116.251 90.5944 123.308Z" fill="white"/>
<path d="M89.1396 119.37C85.9598 123.317 86.9114 129.144 87.6677 134.485C84.2674 129.237 79.9212 123.883 73.7782 122.262C68.5269 120.878 61.4342 122.591 60.8616 128.695C60.1789 135.959 67.14 141.407 71.8788 145.812C81.1765 154.456 90.7237 163.368 95.4297 175.319C95.8668 176.43 97.8223 177.113 98.4373 175.702C101.499 168.678 102.549 160.317 103.824 152.856C105.344 143.961 107.605 133.383 104.306 124.628C102.284 119.268 94.0158 113.316 89.1396 119.37ZM102.623 136.653C102.273 144.18 100.876 151.681 99.3561 159.055C98.594 162.753 97.9867 166.807 96.8629 170.563C91.1512 158.934 81.5344 150.126 71.9446 141.292C68.3122 137.947 57.2776 124.877 70.3547 125.068C78.3197 125.185 83.4802 133.949 86.9965 139.809C87.2093 140.162 87.4975 140.352 87.8031 140.471C87.9965 140.824 88.1899 141.177 88.3834 141.529C89.0777 142.795 90.8147 142.076 90.9346 140.856C91.5013 135.123 88.8746 128.96 90.5961 123.306C92.745 116.248 100.074 121.753 101.575 126.128C102.733 129.512 102.785 133.132 102.623 136.653Z" fill="#BA1B2E"/>
<path d="M42.4754 68.0556C54.9549 75.8847 66.7419 84.391 75.6199 96.1478C77.409 98.5154 81.7532 102.788 83.3973 97.4646C83.7358 96.3723 83.5539 94.8536 83.6139 93.7312C83.786 90.5335 83.9311 87.334 84.0123 84.1344C84.1787 77.5844 84.0936 71.0155 83.4979 64.4844C82.8518 57.3967 81.6159 50.2713 79.115 43.5648C76.9738 37.8241 72.1731 27.6406 65.328 25.9371C53.4791 22.9866 60.5022 51.6447 61.8638 57.3118C62.1462 58.4909 60.3958 59.3097 59.8 58.1608C58.0186 54.7292 53.5584 51.1373 50.5507 48.6923C46.9744 45.7852 42.3845 43.4402 37.9474 42.1272C30.6807 39.9785 23.4351 43.3157 25.8026 51.8579C27.849 59.2418 36.3672 64.1731 42.4754 68.0556Z" fill="white"/>
<path d="M40.9821 70.5454C48.4269 75.2636 55.8329 80.2025 62.3609 86.0998C65.2331 88.6937 67.9159 91.4858 70.3626 94.4665C72.792 97.4246 74.7552 101.524 77.9138 103.824C89.0006 111.9 87.3314 84.9999 87.372 80.4723C87.4958 66.8308 86.6467 52.3555 81.0607 39.6611C78.2619 33.2979 66.589 15.176 57.8368 24.784C54.2237 28.7514 55.036 35.7202 55.6105 40.5063C56.0979 44.5812 57.1965 48.3769 58.2507 52.2122C55.7227 49.4899 52.5525 46.9865 49.9433 45.215C44.7693 41.7023 37.4252 37.7916 30.8759 38.7198C24.8393 39.5762 21.9999 45.4641 22.7465 50.9954C23.9651 60.0167 33.9107 66.0121 40.9821 70.5454ZM37.9474 42.1268C42.3844 43.4379 46.9743 45.7848 50.5506 48.6919C53.5583 51.1368 58.0186 54.7288 59.8 58.1604C60.3957 59.3093 62.1481 58.4905 61.8638 57.3114C60.5021 51.6443 53.479 22.9862 65.3279 25.9367C72.1731 27.6402 76.9737 37.8255 79.1149 43.5643C81.6158 50.2709 82.8518 57.3963 83.4978 64.484C84.0916 71.0151 84.1786 77.5821 84.0123 84.134C83.9311 87.3354 83.7879 90.535 83.6138 93.7308C83.5539 94.8532 83.7338 96.3719 83.3972 97.4642C81.7512 102.788 77.4089 98.5169 75.6198 96.1474C66.7418 84.3925 54.9548 75.8861 42.4753 68.0552C36.3671 64.1727 27.8489 59.2413 25.8025 51.8575C23.4351 43.3153 30.6806 39.9781 37.9474 42.1268Z" fill="#BA1B2E"/>
<path d="M41.7424 105.46C41.7115 105.254 41.7327 105.067 41.7714 104.89C40.6593 99.7718 39.0326 94.4971 35.0694 90.7542C33.4079 88.2621 31.5395 88.2451 29.466 90.7014C29.4893 92.5596 29.6885 94.4027 30.0618 96.2289C30.5879 98.8455 31.5047 101.311 32.553 103.764C33.2242 105.331 30.6188 106.292 29.8065 104.894C27.9825 101.756 23.7292 99.2719 20.2535 98.2399C16.8396 97.2269 13.006 98.6455 14.6288 102.52C16.3541 106.639 22.5377 109.323 26.2437 111.404C30.8219 113.975 38.6419 116.977 43.371 121.423C42.87 116.102 42.5258 110.765 41.7424 105.46Z" fill="white"/>
<path d="M44.384 104.043C43.0165 97.7513 39.0011 85.1965 30.7788 85.321C25.0459 85.4097 25.9027 92.6294 27.5023 98.3493C23.926 95.7893 19.3535 94.0462 15.7946 94.8196C11.1602 95.8252 10.1428 101.113 12.284 104.677C15.3439 109.767 22.1774 112.811 27.2238 115.56C32.1966 118.267 42.7767 122.101 44.1403 128.226C44.5058 129.867 47.4323 129.535 47.1982 127.822C46.1499 120.124 46.1983 112.308 44.6741 104.669C44.6219 104.407 44.5155 104.207 44.384 104.043ZM26.2431 111.406C22.5372 109.325 16.3536 106.641 14.6283 102.522C13.0055 98.6474 16.8371 97.2287 20.2529 98.2418C23.7287 99.2737 27.982 101.756 29.8059 104.896C30.6183 106.295 33.2236 105.333 32.5525 103.766C31.5022 101.311 30.5873 98.8473 30.0612 96.2307C29.6879 94.4046 29.4887 92.5615 29.4655 90.7032C31.539 88.247 33.4074 88.264 35.0689 90.7561C39.034 94.4989 40.6587 99.7736 41.7709 104.892C41.7322 105.069 41.7129 105.256 41.7419 105.462C42.5252 110.766 42.8695 116.103 43.3705 121.429C38.6394 116.981 30.8214 113.977 26.2431 111.406Z" fill="#BA1B2E"/>
<path d="M386.747 76.2519C382.62 75.7953 381.094 70.4527 380.541 67.057C380.471 66.6306 379.744 66.64 379.666 67.057C379.181 69.6472 378.469 72.4392 376.854 74.5804C375.976 75.6067 374.877 76.2915 373.55 76.6292C373.075 76.7801 373.144 77.5008 373.67 77.497C378.423 77.4743 379.548 82.468 380.179 86.1297C380.266 86.6353 381.059 86.4938 381.069 86.0127C381.146 82.4699 382.334 77.3159 386.747 77.1367C387.341 77.1121 387.316 76.3141 386.747 76.2519Z" fill="#BA1B2E"/>
<path d="M419.418 210.544C411.088 209.748 407.898 199.008 406.794 192.154C406.724 191.728 405.997 191.737 405.92 192.154C404.972 197.257 403.589 202.896 400.337 207.069C398.351 209.076 396.39 210.444 393.589 211.271C393.111 211.412 393.185 212.153 393.709 212.138C403.121 211.889 405.668 222.024 406.925 229.425C407.01 229.93 407.805 229.789 407.815 229.308C407.958 222.131 410.44 211.682 419.416 211.429C420.012 211.412 419.991 210.601 419.418 210.544Z" fill="#BA1B2E"/>
<path d="M408.388 146.891C405.454 146.446 401.758 148.606 399.357 149.96C394.299 152.815 386.984 157.655 385.004 163.377C384.278 165.473 381.013 164.628 381.586 162.459C382.822 157.776 383.044 152.492 382.406 147.708C382.139 145.708 381.731 141.958 379.638 140.884C375.731 138.879 372.012 144.755 371.037 147.444C367.778 156.441 369.064 166.986 370.383 176.16C371.551 184.272 372.286 192.283 372.251 200.391C381.658 184.81 398.854 175.021 408.748 159.633C410.717 156.58 414.663 147.846 408.388 146.891Z" fill="white"/>
<path d="M386.051 156.029C386.67 146.533 385.121 133.485 374.816 137.987C366.402 141.663 365.762 152.754 365.533 160.538C365.311 168.133 366.837 175.528 367.775 183.031C368.825 191.437 368.955 199.87 368.367 208.312C368.21 210.571 371.814 210.561 371.97 208.312C371.988 208.062 371.994 207.811 372.009 207.56C378.614 194.416 389.806 185.28 400.157 174.951C406.349 168.773 419.443 156.839 414.327 146.987C409.337 137.385 393.906 147.51 386.051 156.029ZM408.753 159.631C398.86 175.019 381.663 184.808 372.257 200.389C372.291 192.281 371.555 184.271 370.388 176.159C369.067 166.984 367.783 156.439 371.042 147.442C372.017 144.754 375.736 138.877 379.643 140.882C381.736 141.956 382.144 145.708 382.411 147.706C383.049 152.492 382.825 157.774 381.591 162.457C381.019 164.626 384.284 165.471 385.009 163.375C386.989 157.654 394.303 152.815 399.363 149.959C401.763 148.604 405.459 146.444 408.393 146.889C414.662 147.846 410.716 156.58 408.753 159.631Z" fill="#BA1B2E"/>
<path d="M411.705 93.47C407.043 96.2262 402.763 100.535 399.467 104.74C398.43 106.063 395.734 105.368 396.438 103.495C397.562 100.501 398.397 97.3298 398.91 94.1831C399.061 93.2568 400.009 88.9782 399.142 88.1463C396.711 85.8164 394.477 90.9892 393.873 92.4117C390.082 101.35 390.724 111.379 390.672 120.968C393.421 118.687 396.657 116.821 399.562 114.922C405.366 111.126 411.208 107.374 416.09 102.456C418.041 100.488 420.314 98.3297 420.043 95.3169C419.556 89.9234 414.821 91.6269 411.705 93.47Z" fill="white"/>
<path d="M413.105 89.2576C408.89 90.8234 404.943 93.9965 401.562 97.447C403.078 90.38 403.672 81.1964 396.163 84.0979C391.918 85.7373 390.028 92.3137 389.024 96.1641C386.564 105.602 387.514 115.512 387.136 125.141C387.104 125.967 387.589 126.473 388.202 126.669C388.784 127.013 389.514 127.022 390.08 126.331C395.173 120.136 403.929 116.38 410.405 111.711C415.563 107.993 422.867 102.739 422.998 95.734C423.107 89.9348 418.289 87.3295 413.105 89.2576ZM416.088 102.458C411.206 107.378 405.364 111.13 399.56 114.924C396.655 116.823 393.419 118.689 390.67 120.97C390.722 111.381 390.08 101.352 393.871 92.4137C394.475 90.9894 396.709 85.8184 399.14 88.1483C400.009 88.9802 399.059 93.2589 398.908 94.1851C398.395 97.3319 397.56 100.501 396.436 103.497C395.732 105.37 398.428 106.065 399.465 104.742C402.763 100.537 407.041 96.2283 411.703 93.472C414.821 91.6289 419.554 89.9235 420.039 95.319C420.312 98.3298 418.039 100.49 416.088 102.458Z" fill="#BA1B2E"/>
<path d="M254.523 340.113C253.93 342.082 257.084 342.926 257.67 340.96C260.583 331.176 267.707 323.03 274.107 315.216C280.293 307.667 285.701 299.947 290.948 291.752C302.285 274.047 313.383 256.672 318.94 236.315C319 236.094 318.975 235.907 318.919 235.734C318.64 234.87 317.164 234.656 316.841 235.751C310.565 256.976 298.008 275.118 286.161 293.657C282.239 299.796 277.86 305.478 273.353 311.125C271.483 313.47 269.597 315.811 267.701 318.171C262.328 324.862 257.017 331.861 254.523 340.113Z" fill="white"/>
<path d="M395.647 242.838C394.494 240.338 393.066 238.112 391.451 236.09C391.235 235.788 390.991 235.505 390.761 235.211C390.724 235.167 390.689 235.12 390.651 235.077C386.562 229.887 380.751 226.074 373.494 223.729C367.783 221.601 361.622 220.343 355.566 219.662C350.083 219.047 344.524 218.77 338.998 218.277C335.919 217.889 332.95 217.528 330.364 217.238C327.754 216.821 325.164 216.298 322.609 215.589C316.733 213.961 311.532 211.341 310.095 205.138C309.114 200.908 309.702 196.284 309.747 191.991C309.762 190.476 307.354 190.474 307.333 191.991C307.254 197.848 306.215 204.632 309.312 209.977C311.886 214.419 316.782 216.585 321.733 217.936C321.526 223.852 320.542 229.802 318.919 235.733C318.975 235.907 319 236.094 318.94 236.314C313.383 256.67 302.283 274.045 290.948 291.752C285.701 299.947 280.293 307.666 274.107 315.216C267.707 323.03 260.583 331.174 257.671 340.96C257.084 342.927 253.928 342.082 254.524 340.113C257.017 331.861 262.328 324.862 267.703 318.172C269.599 315.812 271.485 313.471 273.355 311.126C249.208 271.906 247.744 229.278 252.992 209.807C255.698 209.656 258.301 209.156 260.705 208.107C269.779 204.149 269.537 193.055 269.543 184.856C269.543 183.416 267.347 183.437 267.264 184.856C266.949 190.215 267.096 196.75 264.086 201.461C259.941 207.951 250.734 206.802 244.087 205.823C232.53 204.121 220.619 200.127 208.892 202.917C206.724 203.432 204.764 204.2 202.969 205.158C202.824 205.2 202.666 205.24 202.546 205.289C187.111 211.556 181.053 236.222 177.121 250.146C172.579 266.223 128.075 424.825 138.609 424.77C149.825 424.712 207.306 425.793 222.193 426.363C222.836 426.387 223.491 426.412 224.162 426.436C223.696 410.629 229.178 395.512 233.748 380.543C234.284 378.786 237.087 379.532 236.568 381.301C232.168 396.303 228.128 410.91 227 426.534C270.204 427.991 363.52 428.874 366.591 426.589C367.139 426.183 367.616 425.546 368.055 424.782C368.784 424.987 369.653 424.746 369.792 423.88C373.459 401.064 375.163 377.866 377.662 354.909C380.183 331.748 386.691 309.23 393.136 286.879C397.155 272.939 402.095 256.836 395.647 242.838Z" fill="black"/>
<path d="M233.746 380.543C229.176 395.513 223.696 410.629 224.16 426.436C224.168 426.667 224.162 426.897 224.172 427.127C224.243 428.874 226.826 428.857 226.944 427.127C226.957 426.929 226.982 426.735 226.998 426.535C228.125 410.909 232.166 396.301 236.566 381.301C237.085 379.532 234.284 378.785 233.746 380.543Z" fill="white"/>
<path d="M308.519 205.089C308.352 205.109 308.188 205.13 308.022 205.149C307.469 205.217 306.999 205.46 306.631 205.792C301.554 207.868 292.687 206.853 287.533 206.413C280.794 205.84 272.547 204.504 267.862 199.263C266.792 198.067 264.624 199.661 265.583 200.978C270.187 207.296 278.225 209.22 285.746 210.139C292.502 210.965 302.962 212.199 309.372 209.25C309.971 208.975 310.291 208.483 310.391 207.937C310.942 206.613 310.321 204.868 308.519 205.089Z" fill="black"/>
<path d="M293.833 263.357C286.22 261.92 284.266 251.512 283.856 245.102C283.744 243.36 281.172 242.887 280.657 244.679C279.266 249.531 277.411 254.512 274.143 258.464C271.938 259.856 269.891 261.079 267.255 261.592C265.209 261.99 265.847 264.835 267.723 264.963C276.075 265.529 277.346 275.348 277.814 282.059C277.97 284.302 281.075 284.226 281.332 282.059C282.106 275.582 285.268 266.102 293.38 266.615C295.274 266.738 295.722 263.714 293.833 263.357ZM280.04 273.247C278.926 268.923 276.914 265.089 273.179 263.05C274.232 262.409 275.208 261.614 276.133 260.609C276.152 260.588 276.158 260.562 276.175 260.539C278.572 258.32 280.253 255.304 281.545 252.146C282.551 256.77 284.46 261.405 287.899 264.189C284.185 265.782 281.663 269.281 280.04 273.247Z" fill="#BA1B2E"/>
<path d="M255.769 208.816C255.475 219.333 257.373 229.426 264.33 237.814C269.502 244.049 279.241 246.896 287.285 247.12C305.904 247.639 314.389 230.217 317.486 214.844C317.888 212.84 314.733 211.987 314.339 213.997C311.693 227.495 304.977 243.83 288.486 244.168C281.005 244.32 271.347 241.596 266.479 235.969C259.957 228.428 257.922 218.426 257.945 208.814C257.949 207.448 255.808 207.452 255.769 208.816Z" fill="black"/>
<path d="M272.446 153.181C275.347 150.015 275.777 145.001 270.935 142.59C266.703 140.481 260.274 143.256 259.112 147.784C258.264 151.087 260.228 155.015 263.547 155.941C265.195 156.399 266.961 156.141 268.591 155.641C270.102 155.177 271.427 154.292 272.446 153.181Z" fill="#BA1B2E"/>
<path d="M329.304 160.344C331.708 157.72 332.064 153.564 328.052 151.566C324.544 149.819 319.217 152.117 318.254 155.869C317.552 158.607 319.18 161.863 321.931 162.631C323.296 163.012 324.76 162.797 326.11 162.381C327.362 161.999 328.46 161.267 329.304 160.344Z" fill="#BA1B2E"/>
<path d="M332.988 148.229C335.257 150.661 338.913 153.538 342.437 153.659C343.839 153.708 344.24 151.846 343.128 151.172C341.806 150.372 340.257 150.006 338.905 149.216C338.114 148.754 337.391 148.218 336.698 147.643C339.315 146.535 341.93 145.424 344.538 144.292C345.886 143.707 344.915 141.409 343.522 141.943C340.22 143.209 336.928 144.49 333.644 145.798C332.604 146.213 332.172 147.354 332.988 148.229Z" fill="black"/>
<path d="M308.848 158.288C306.285 163.278 301.708 167.739 295.515 166.77C288.742 165.709 286.399 159.738 284.399 154.183C283.869 152.709 281.247 152.805 281.411 154.577C282.071 161.674 287.312 168.828 294.836 170.022C302.432 171.227 308.42 166.085 311.387 159.737C312.161 158.082 309.706 156.618 308.848 158.288Z" fill="black"/>
<path d="M266.854 115.888C276.159 113.596 283.724 115.24 292.308 118.897C294.393 119.786 295.95 117.243 294.093 115.919C286.26 110.338 274.916 109.801 265.956 112.712C263.904 113.379 264.728 116.413 266.854 115.888Z" fill="black"/>
<path d="M300.354 141.56C300.383 141.572 300.41 141.581 300.439 141.59C300.49 141.602 300.54 141.607 300.592 141.615C300.842 141.662 301.109 141.656 301.389 141.521C303.07 140.709 306.23 140.592 306.536 142.979C306.892 145.762 303.575 146.927 301.803 148.342C300.88 149.08 301.871 150.64 302.962 150.282C306.468 149.129 310.615 145.228 308.741 141.296C307.6 138.9 304.966 138.272 302.519 138.679C303.633 134.44 304.735 130.2 305.878 125.966C306.236 124.644 304.149 124.083 303.78 125.402C302.422 130.256 301.01 135.097 299.625 139.945C299.542 140.119 299.505 140.3 299.527 140.487C299.519 141.03 299.88 141.415 300.354 141.56Z" fill="black"/>
<path d="M357.564 107.39C363.84 102.317 368.237 95.0574 363.836 87.0774C359.098 78.4786 350.193 80.169 342.835 84.1816C345.742 79.5162 347.769 74.4207 347.032 68.8045C345.995 60.8887 339.284 56.1554 331.711 54.5424C320.087 52.0673 306.54 55.3102 297.638 63.2412C299.952 53.0257 298.296 40.8878 291.259 33.7303C283.008 25.3391 269.583 24.575 258.976 28.6782C247.527 33.1059 240.05 42.6196 239.684 54.7103C239.336 66.2464 244.777 77.6655 255.013 82.7931C241.91 88.1904 238.901 112.638 247.071 124.115C245.726 123.474 244.344 123.027 243.063 122.836C237.676 122.038 234.077 125.934 232.792 130.649C231.473 135.489 231.814 141.879 234.85 146.071C238.113 150.574 244.338 152.97 249.686 151.398C251.37 163.976 254.192 175.884 265.051 184.163C272.699 189.997 282.004 193.909 291.702 194.82C314.868 196.999 329.984 180.389 335.212 160.071C343.622 163.178 352.829 154.581 354.202 146.582C354.929 142.336 353.608 137.772 349.396 135.755C345.498 133.891 341.139 134.993 337.425 136.921C341.68 132.416 349.502 132.452 355.063 130.066C360.307 127.815 365.181 123.555 365.568 117.609C365.923 112.151 362.132 108.416 357.564 107.39ZM320.402 133.376C321.52 133.376 322.657 133.48 323.816 133.724C325.551 134.088 330.822 135.121 332.512 136.993C328.261 137.955 323.911 138.334 319.737 137.681C319.992 136.365 320.474 134.772 320.402 133.376ZM345.206 138.261C352.067 138.898 351.438 144.845 349.813 148.757C347.624 154.032 340.81 159.808 334.889 156.073C333.963 155.488 332.522 156.043 332.286 157.107C327.998 176.391 314.797 192.998 292.886 191.464C284.173 190.855 275.796 187.493 268.714 182.584C256.92 174.406 254.483 162.206 252.757 149.057C252.601 147.865 251.434 146.952 250.22 147.637C240.988 152.853 234.876 142.051 235.29 134.622C235.477 131.258 236.485 126.762 240.229 125.485C244.386 124.07 251.924 128.383 252.208 132.761C252.289 134.007 254.26 134.029 254.214 132.761C254.15 130.992 253.332 129.332 252.104 127.887C252.767 127.63 253.309 127.004 253.274 126.296C252.78 115.698 259.5 105.058 267.486 98.2909C270.606 95.6479 275.041 92.7256 278.146 89.2054C278.579 92.7973 279.89 96.1855 282.983 98.5588C287.461 101.996 293.867 101.981 299.267 101.743C307.807 101.364 316.597 99.5284 324.698 103.262C331.539 106.416 334.206 112.376 334.816 118.984C328.773 117.054 321.771 117.424 316.046 119.522C314.329 120.152 314.979 122.725 316.818 122.252C323.462 120.537 329.069 121.193 334.957 123.219C334.866 126.868 334.301 130.562 333.591 133.993C331.295 132.331 327.957 131.454 325.644 130.854C319.377 129.232 313.102 130.413 308.017 134.418C306.561 135.565 308.524 138.083 310.037 136.97C310.097 136.927 310.159 136.891 310.219 136.85C316.783 141.624 325.725 141.528 333.51 139.864C333.146 141.185 334.452 142.756 335.926 141.804C338.57 140.092 341.87 137.949 345.206 138.261Z" fill="black"/>
<path d="M291.202 132.197C288.915 129.12 286.362 126.257 282.548 124.974C276.181 122.831 268.821 124.687 262.343 125.276C261.137 125.385 259.972 127.04 261.2 127.97C264.684 130.603 267.365 133.914 271.784 135.067C277.887 136.657 284.529 135.414 290.737 135.423C292.751 135.423 292.892 132.65 291.202 132.197ZM274.486 132.145C274.359 132.124 274.247 132.084 274.123 132.06C274.891 130.516 275.98 128.696 276.063 127.045C276.378 127.047 276.693 127.041 277.009 127.053C281.707 127.228 284.865 129.132 287.707 132.186C283.295 132.388 278.817 132.869 274.486 132.145Z" fill="black"/>
<path d="M242.365 130.537C241.11 129.418 239.253 131.207 240.491 132.365C242.439 134.189 244.464 135.968 246.375 137.844C244.042 138.576 241.599 139.319 239.642 140.558C238.236 141.449 239.191 143.275 240.723 143.058C243.702 142.635 246.761 141.009 249.566 139.955C250.518 139.596 251.243 138.225 250.245 137.447C247.493 135.304 244.967 132.852 242.365 130.537Z" fill="black"/>
<path d="M245.146 147.978C251.291 153.253 248.175 164.781 241.365 168.047C237.622 169.841 233.501 169.52 231.408 165.707C229.673 162.546 229.855 158.418 230.909 155.088C232.327 150.615 235.284 148.404 239.025 145.823C240.361 144.901 239.601 142.684 237.866 143.141C227.512 145.869 222.253 163.596 231.205 170.426C235.789 173.923 242.702 171.927 246.498 168.19C252.017 162.757 253.406 151.428 246.938 146.233C245.698 145.235 243.909 146.916 245.146 147.978Z" fill="#BA1B2E"/>
<path d="M339.454 157.15C345.557 159.233 346.125 166.817 344.677 172.05C342.603 179.537 334.64 178.919 332.102 171.618C331.574 170.099 328.971 170.237 329.081 172.016C329.617 180.717 341.99 184.046 346.34 176.138C350.195 169.126 348.775 157.431 340.125 154.784C338.566 154.309 337.94 156.633 339.454 157.15Z" fill="#BA1B2E"/>
<path d="M248.904 223.286C239.875 207.616 215.833 200.101 201.938 213.866C188.931 226.753 185.041 247.507 182.583 265.302C171.888 243.873 164.44 214.687 137.535 209.024C108.845 202.983 97.3114 233.528 97.5919 256.262C97.3597 256.523 97.1973 256.857 97.2127 257.309C98.3733 291.535 123.864 316.769 146.844 339.913C156.345 349.481 165.088 358.853 172.664 369.918C178.043 377.771 183.302 385.704 188.497 393.673C189.203 394.756 190.691 394.707 191.408 393.673C199.661 381.776 207.36 369.48 214.752 357.063C227.632 335.43 240.198 312.822 247.868 288.848C254.129 269.27 259.796 242.189 248.904 223.286Z" fill="#BA1B2E"/>
<path d="M174.008 374.255C172.944 383.431 170.457 392.445 168.463 401.457C166.923 408.414 163.828 417.475 165.279 424.629C165.507 425.755 167.293 425.7 167.558 424.629C168.476 420.905 168.414 416.873 169.037 413.076C169.826 408.269 170.857 403.5 171.886 398.736C173.635 390.645 175.565 382.525 176.134 374.255C176.227 372.906 174.159 372.957 174.008 374.255Z" fill="white"/>
<path d="M362.02 256.571C355.291 261.544 351.667 268.732 348.773 276.271C349.676 270.124 350.775 264.025 353.353 258.241C354.183 256.379 351.367 254.759 350.535 256.634C345.498 267.992 345.874 280.266 342.756 292.085C339.423 304.716 334.348 316.797 331.356 329.582C326.201 351.605 321.42 374.364 321.099 397.093C316.727 386.979 308.627 378.945 299.227 372C292.347 366.918 285.047 362.409 278.123 357.387C267.597 349.751 257.663 341.182 247.568 333.006C247.388 333.766 247.162 334.504 246.889 335.215C261.529 347.285 275.954 359.095 291.587 369.931C305.925 379.869 319.718 391.569 321.393 409.755C321.561 411.585 324.48 411.632 324.36 409.755C322.661 383.087 328.257 356.265 334.363 330.391C337.149 318.591 341.201 307.376 344.97 295.875C345.483 294.309 345.914 292.729 346.288 291.134C346.667 290.972 346.994 290.67 347.17 290.197C351.39 278.848 354.166 266.955 363.334 258.239C364.196 257.422 363.026 255.826 362.02 256.571Z" fill="white"/>
<path d="M235.262 317.097C233.307 312.515 232.937 307.759 231.715 302.991C230.195 297.064 227.348 291.176 224.073 285.966C221.524 281.909 219.185 279.642 214.938 277.676C213.945 277.218 210.907 275.371 209.63 275.705C206.93 276.412 211.481 281.102 212.648 282.519C215.528 286.018 217.787 289.333 219.427 293.576C220.744 296.987 220.35 301.982 222.121 305.034C223.042 306.619 220.812 308.374 219.506 307.002C213.886 301.105 207.404 296.151 201.454 290.591C196.76 286.203 193.321 280.734 188.619 276.408C186.969 274.892 179.437 269.43 181.159 274.531C181.745 276.267 183.548 278.08 184.637 279.521C189.019 285.32 192.925 291.44 197.499 297.109C198.77 298.684 196.542 300.939 195.201 299.35C191.669 295.168 187.863 291.263 183.644 287.731C181.565 285.99 173.153 277.963 170.204 279.095C168.488 279.753 173.219 284.158 174.196 285.332C176.101 287.618 178.008 289.906 179.913 292.193C183.722 296.77 187.524 301.35 191.331 305.929C192.689 307.562 190.611 309.655 188.948 308.253C184.731 304.706 180.513 301.158 176.294 297.611C174.488 296.09 172.691 294.557 170.873 293.049C168.544 291.119 164.076 287.426 166.797 293.089C168.602 296.845 173.405 300.486 176.321 303.597C179.805 307.313 183.368 310.958 186.979 314.556C188.128 315.701 186.985 317.897 185.31 317.352C177.223 314.71 172.998 307.436 166.875 302.21C166.001 301.465 164.819 300.301 163.606 300.048C163.43 300.013 163.312 299.93 163.221 299.839C163.248 299.937 163.275 300.039 163.304 300.184C163.596 301.646 165.567 303.544 166.476 304.655C169.113 307.877 172.018 310.896 174.923 313.888C178.443 317.514 181.913 321.245 185.747 324.562C191.31 329.376 196.896 331.725 203.996 333.485C212.437 335.579 219.471 341.399 222.524 349.364C231.574 346.523 243.254 341.061 244.546 330.936C239.802 328.925 236.941 321.03 235.262 317.097Z" fill="white"/>
<path d="M248.015 330.242C248.115 328.872 246.744 328.414 245.719 328.821C241.945 327.22 239.46 320.059 238.071 316.912C235.309 310.656 235.234 303.808 232.798 297.445C229.261 288.206 224.791 279.087 215.42 274.65C210.787 272.456 202.551 270.571 205.94 278.597C208.19 283.924 213.221 287.556 215.569 292.942C216.555 295.204 216.888 297.771 217.307 300.276C210.615 294.109 203.273 288.578 197.439 281.592C193.724 277.144 187.053 267.485 179.701 269.404C175.345 270.539 177.556 274.907 179.239 277.506C180.44 279.362 181.685 281.211 182.964 283.049C181.759 282.092 180.556 281.138 179.302 280.221C176.842 278.425 169.349 271.796 166.018 275.41C163.065 278.617 168.637 283.871 170.37 285.956C172.154 288.099 173.941 290.24 175.724 292.383C173.726 290.748 171.695 289.174 169.606 287.722C167.434 286.211 163.869 284.192 161.461 286.499C157.941 289.876 163.98 295.106 166.281 297.556C165.444 297.105 164.566 296.777 163.647 296.647C156.798 295.664 160.782 302.787 162.78 305.368C169.049 313.467 176.918 321.641 184.873 328.156C189.774 332.17 195.002 334.747 201.198 336.23C209.87 338.307 217.151 343.074 219.824 351.856C220.079 352.693 221.01 353.265 221.897 353.005C231.454 350.207 243.208 344.861 246.889 335.215C247.162 334.502 247.388 333.766 247.568 333.006C247.779 332.113 247.945 331.2 248.015 330.242ZM222.522 349.368C219.468 341.403 212.435 335.583 203.994 333.489C196.894 331.727 191.308 329.378 185.745 324.565C181.914 321.249 178.442 317.517 174.921 313.892C172.018 310.899 169.111 307.883 166.475 304.659C165.566 303.548 163.597 301.652 163.303 300.188C163.274 300.043 163.247 299.941 163.22 299.843C163.31 299.933 163.428 300.016 163.604 300.052C164.817 300.305 165.999 301.467 166.873 302.214C172.995 307.44 177.219 314.714 185.308 317.355C186.981 317.902 188.124 315.704 186.977 314.559C183.366 310.96 179.803 307.317 176.32 303.601C173.405 300.49 168.6 296.849 166.796 293.093C164.074 287.427 168.542 291.121 170.871 293.053C172.689 294.56 174.486 296.094 176.293 297.615C180.511 301.163 184.728 304.71 188.946 308.256C190.612 309.656 192.689 307.566 191.329 305.932C187.525 301.354 183.722 296.771 179.912 292.196C178.006 289.908 176.101 287.622 174.194 285.335C173.217 284.162 168.486 279.757 170.202 279.098C173.15 277.966 181.562 285.994 183.643 287.735C187.861 291.266 191.668 295.172 195.2 299.354C196.542 300.942 198.768 298.688 197.497 297.113C192.925 291.444 189.02 285.324 184.635 279.525C183.546 278.083 181.743 276.27 181.157 274.535C179.436 269.434 186.97 274.895 188.617 276.412C193.32 280.738 196.759 286.209 201.453 290.595C207.401 296.156 213.884 301.108 219.505 307.006C220.81 308.375 223.042 306.623 222.12 305.038C220.346 301.988 220.743 296.99 219.425 293.579C217.785 289.337 215.526 286.022 212.646 282.522C211.48 281.106 206.929 276.416 209.629 275.708C210.905 275.372 213.944 277.221 214.936 277.68C219.184 279.645 221.522 281.911 224.071 285.969C227.346 291.18 230.193 297.067 231.713 302.995C232.936 307.762 233.307 312.518 235.261 317.1C236.94 321.036 239.8 328.931 244.543 330.946C243.253 341.065 231.572 346.526 222.522 349.368Z" fill="black"/>
<path d="M243.959 393.467C237.469 380.699 232.531 367.471 227.267 354.211C226.766 352.951 224.878 353.417 225.168 354.775C228.092 368.431 234.485 381.669 240.742 394.141C246.914 406.447 253.543 420.06 262.713 430.543C263.821 431.809 265.821 430.189 265.022 428.806C258.144 416.9 250.212 405.773 243.959 393.467Z" fill="white"/>
<path d="M182.505 273.943C178.279 282.619 174.472 290.939 169.169 299.109C168.188 300.62 165.368 299.639 166.084 297.839C171.389 284.507 176.867 271.155 181.35 257.536C181.669 256.566 182.598 254.906 182.464 253.889C182.103 251.137 179.155 253.785 177.673 255.389C175.385 257.87 173.726 261.26 172.215 264.554C171.942 265.18 171.683 265.784 171.457 266.351C167.861 275.384 164.318 285.036 158.732 293.112C157.728 294.564 154.948 293.672 155.662 291.85C159.395 282.327 164.271 273.045 168.952 263.924C170.408 260.481 171.815 256.981 172.718 253.444C172.863 252.872 173.88 248.797 173.161 248.331C171.857 247.486 167.776 252.872 167.213 253.638C164.362 257.523 162.397 262.003 160.494 266.378C157.093 274.198 154.037 282.259 148.215 288.731C146.962 290.125 144.542 288.28 145.591 286.756C151.314 278.442 155.796 269.459 159.146 260C160.25 256.879 162.589 251.797 161.973 248.409C161.163 243.953 158.347 248.294 157.072 250.261C153.852 255.23 151.79 260.747 149.03 265.944C144.355 274.747 137.982 283.142 131.272 290.561C130.017 291.95 127.645 290.125 128.663 288.597C131.034 285.03 129.363 279.925 130.415 275.914C131.133 273.177 132.612 270.581 133.5 267.887C133.933 266.574 134.663 264.942 134.682 263.548C134.746 259.054 130.519 263.171 128.945 265.071C125.841 268.815 124.021 274.135 121.866 278.467C118.903 284.422 116.106 290.791 116.421 297.556C116.663 302.731 118.81 307.166 118.127 312.452C116.972 321.387 111.344 329.092 106.239 336.424C116.218 336.602 127.113 342.06 134.717 347.134C136.663 348.434 139.726 350.339 141.883 352.543C143.43 346.759 145.376 340.999 149.873 336.792C152.79 334.063 156.389 331.984 159.573 329.565C164.71 325.664 168.194 320.895 171.205 315.29C174.06 309.975 176.524 304.459 178.962 298.956C181.929 292.257 185.404 285.53 187.182 278.412C188.031 275.005 188.737 271.507 189.019 268.01C189.116 266.804 189.132 265.618 189.13 264.41C189.126 263.124 189.079 262.773 189.074 262.775C186.441 263.58 183.596 271.704 182.505 273.943Z" fill="white"/>
<path d="M189.706 259.13C186.895 258.696 184.807 262.716 183.675 264.563C182.381 266.68 181.199 268.844 180.058 271.024C181.213 267.951 182.352 264.871 183.441 261.775C184.377 259.111 186.174 255.608 185.981 252.701C185.698 248.492 181.865 248.609 178.785 250.324C177.981 250.771 177.275 251.312 176.607 251.889C176.77 250.497 176.754 249.146 176.453 247.888C174.774 240.899 168.319 247.132 164.904 251.352C165.494 247.043 165.14 242.212 160.376 242.823C154.722 243.547 151.032 254.099 149.051 258.219C144.774 267.121 139.5 275.477 133.256 283.177C133.336 280.595 133.231 277.956 134.02 275.575C135.152 272.16 136.858 268.989 137.66 265.448C139.465 257.481 133.647 255.962 127.856 261.386C123.606 265.367 121.519 271.773 119.005 276.839C116.199 282.491 113.57 288.394 113.171 294.746C112.684 302.531 116.355 309.161 113.688 317.005C111.233 324.221 106.35 330.45 102.044 336.694C101.729 336.741 101.41 336.772 101.098 336.832C94.9494 338.028 90.3847 343.227 86.5936 347.723C81.3133 353.984 76.4739 360.647 71.3889 367.064C64.1705 376.17 57.7431 385.761 51.0237 395.21C45.0664 403.59 39.227 411.965 35.3934 421.507C34.8074 422.965 37.1922 423.567 37.786 422.15C42.2192 411.599 49.3525 402.649 55.9211 393.322C62.596 383.846 69.2342 374.425 76.5435 365.392C82.1643 358.446 87.0327 350.628 93.638 344.521C97.8062 340.669 102.038 339.388 106.715 339.6C109.322 339.717 112.065 340.292 115.017 341.154C122.479 343.337 129.964 346.949 136.057 351.734C137.254 352.675 138.438 353.671 139.471 354.786C140.204 355.578 140.593 356.205 140.763 356.824C140.647 357.273 140.531 357.725 140.411 358.169C140.384 358.27 140.359 358.376 140.33 358.478C140.204 358.942 140.341 359.312 140.591 359.583C140.527 359.882 140.459 360.202 140.388 360.555C139.5 364.973 138.306 369.369 137.125 373.717C132.403 391.113 125.589 407.861 119.545 424.838C118.908 426.627 121.813 427.395 122.446 425.619C127.912 410.271 134.057 395.114 138.629 379.477C139.809 375.44 140.889 371.374 141.89 367.29C142.625 364.296 144.972 359.206 144.246 356.273C144.177 355.99 144.072 355.709 143.95 355.429C146.268 347.772 148.767 341.005 155.917 335.893C158.66 333.931 161.505 332.07 164.083 329.899C170.453 324.532 174.143 316.882 177.629 309.574C183.839 296.545 190.872 283.153 192.309 268.661C192.549 266.287 193.47 259.711 189.706 259.13ZM189.019 268.012C188.737 271.509 188.031 275.007 187.182 278.414C185.406 285.532 181.928 292.259 178.961 298.958C176.524 304.461 174.058 309.977 171.205 315.292C168.194 320.898 164.71 325.666 159.573 329.567C156.389 331.986 152.79 334.063 149.873 336.794C145.378 341.003 143.43 346.761 141.883 352.545C139.726 350.343 136.662 348.436 134.717 347.136C127.113 342.06 116.218 336.604 106.239 336.426C111.344 329.094 116.972 321.391 118.127 312.454C118.81 307.168 116.663 302.731 116.421 297.558C116.106 290.793 118.903 284.424 121.866 278.469C124.02 274.137 125.84 268.819 128.945 265.072C130.521 263.171 134.746 259.056 134.682 263.55C134.662 264.944 133.933 266.576 133.5 267.889C132.61 270.583 131.131 273.181 130.415 275.916C129.365 279.927 131.036 285.034 128.662 288.599C127.647 290.127 130.016 291.952 131.272 290.563C137.983 283.143 144.355 274.748 149.03 265.946C151.79 260.75 153.852 255.234 157.072 250.263C158.347 248.296 161.163 243.957 161.973 248.411C162.59 251.799 160.252 256.881 159.145 260.002C155.797 269.461 151.314 278.444 145.591 286.758C144.542 288.282 146.96 290.127 148.215 288.733C154.037 282.262 157.093 274.201 160.494 266.38C162.397 262.005 164.362 257.523 167.213 253.64C167.776 252.874 171.855 247.488 173.161 248.333C173.88 248.799 172.863 252.874 172.718 253.446C171.814 256.983 170.408 260.484 168.952 263.925C164.273 273.047 159.395 282.329 155.662 291.852C154.948 293.674 157.728 294.566 158.732 293.114C164.316 285.038 167.859 275.386 171.457 266.353C171.683 265.786 171.942 265.18 172.215 264.556C173.725 261.262 175.385 257.872 177.673 255.391C179.155 253.785 182.101 251.139 182.464 253.891C182.598 254.906 181.669 256.568 181.35 257.538C176.867 271.157 171.387 284.511 166.083 297.841C165.368 299.641 168.188 300.622 169.169 299.111C174.472 290.94 178.279 282.619 182.505 273.945C183.596 271.704 186.441 263.582 189.071 262.778C189.077 262.777 189.124 263.127 189.128 264.414C189.131 265.62 189.116 266.806 189.019 268.012Z" fill="black"/>
<path d="M239.626 29.4682C234.707 24.1501 225.448 22.6843 220.384 28.6023C219.454 29.689 220.679 31.6736 222.063 30.7247C227.119 27.2648 233.079 26.8969 237.558 31.4849C238.864 32.8225 240.881 30.8265 239.626 29.4682Z" fill="white"/>
<path d="M210.373 10.541C201.203 1.40645 185.31 5.70395 182.147 18.1305C181.704 19.8717 184.147 20.4037 184.82 18.8492C188.842 9.55435 200.213 4.74937 208.307 12.5577C209.646 13.85 211.692 11.854 210.373 10.541Z" fill="white"/>
<path d="M267.276 196.452C264.713 189.385 255.876 187.027 249.15 185.51C239.506 183.335 229.59 182.616 219.772 181.524C219.973 178.305 216.778 176.108 213.339 175.11C210.167 174.191 207.511 173.883 205.459 174.904C205.12 171.108 204.612 167.356 204.666 163.491C213.474 161.868 221.605 157.337 226.611 149.766C234.692 137.541 235.487 120.272 235.156 106.197C235.017 100.311 234.497 94.457 233.721 88.6314C235.822 86.7675 237.634 84.3188 236.255 82.4946C235.752 81.8286 235.004 81.6664 234.338 81.8116C233.791 81.506 233.201 81.2646 232.578 81.0702C232.071 78.1235 231.495 75.1881 230.876 72.2583C231.65 72.2583 232.423 72.2319 233.195 72.2526C233.773 72.2696 234.477 71.8093 234.584 71.2226C234.909 69.4078 234.214 68.5984 232.719 67.5533C231.944 66.6478 230.779 66.0215 229.389 65.6083C228.596 62.2503 227.76 58.9017 226.874 55.572C239.653 53.2308 250.81 43.5454 246.738 29.8644C246.572 29.3041 246.214 28.9532 245.789 28.7721C240.684 17.7472 227.735 15.574 217.313 20.0714C218.816 16.621 219.041 12.8781 216.853 9.04848C213.681 3.49644 207.109 -0.0577713 200.66 0.00071089C188.02 0.115789 177.722 8.57496 174.906 19.613C173.107 16.2644 170.339 13.6818 165.928 13.5026C160.02 13.263 157.514 17.5944 156.607 22.4183C153.498 18.4905 148.578 16.3776 143.798 20.1431C141.462 21.9844 140.081 24.4915 139.263 27.2081C138.634 24.5595 137.98 21.9127 137.4 19.2546C136.626 15.7041 136.267 11.4783 132.145 10.3728C131.226 10.1257 130.344 10.6784 130.056 11.5293C127.391 19.3979 129.155 27.6005 134.472 33.6053C129.551 33.8996 119.959 30.4416 117.573 29.6474C115.785 29.0532 115.029 31.7962 116.795 32.398C118.735 33.0583 120.687 33.6827 122.656 34.2336C118.325 35.4145 114.223 37.9557 111.271 41.6061C102.708 52.197 110.298 61.6843 120.485 66.0026C113.582 69.2304 107.519 76.901 110.273 83.7887C114.037 93.2044 125.087 87.6316 131.642 83.053C131.86 89.7501 131.323 97.4981 137.568 101.652C141.087 103.993 144.237 102.26 146.077 98.8922C148.684 94.1155 149.106 87.841 149.085 82.5361C149.077 80.3949 149.081 77.4198 148.466 74.773C161.251 78.614 174.647 70.3831 176.196 57.251C185.546 64.5368 199.242 60.0223 202.714 48.9616C208.087 54.757 216.439 56.8096 224.491 55.9229C225.195 58.9281 225.894 61.9749 226.569 65.048C222.574 64.5858 217.917 65.114 215.389 65.4329C214.033 65.6026 211.751 65.6196 210.89 66.8855C210.068 68.0929 210.816 70.7 210.894 72.0357C210.938 72.7978 211.596 73.7034 212.493 73.5958C217.642 72.9771 222.872 72.4168 228.085 72.2621C228.632 74.9938 229.149 77.7405 229.621 80.5024C227.354 80.3119 224.992 80.5628 223.066 80.9797C218.433 81.9833 214.681 84.5622 211.942 88.2994C211.335 89.1295 211.954 90.4576 212.931 90.6689C218.905 91.9611 223.986 94.0156 230.06 91.1801C230.34 91.0499 230.702 90.8462 231.108 90.5915C233.098 106.738 233.033 123.064 228.224 138.488C224.05 151.873 213.052 160.491 198.559 160.789C192.579 160.912 186.703 159.678 181.111 157.667C173.2 154.82 169.432 149.936 164.543 143.544C163.442 142.107 161.266 143.303 162.061 144.959C168.071 157.461 180.262 163.011 194.012 164.06C196.672 164.262 199.354 164.196 202 163.889C201.65 168.328 201.573 173.317 202.805 177.607C202.563 178.049 202.337 178.528 202.136 179.075C200.188 184.348 199.844 188.344 193.397 190.411C188.819 191.879 183.641 191.958 178.86 191.647C167.976 190.936 157.781 186.936 149.083 180.596C148.854 180.428 148.632 180.367 148.417 180.35C148.709 179.703 148.425 178.836 147.526 178.935C143.617 179.371 135.818 177.86 133.595 182.182C133.489 182.39 133.452 182.695 133.443 183.029C132.996 183.525 132.828 184.301 133.367 184.95C133.344 185.016 133.321 185.08 133.284 185.121C132.137 186.433 127.392 185.548 125.777 185.606C120.019 185.814 114.255 186.483 108.65 187.802C89.5228 192.301 67.5986 203.049 54.9103 218.034C48.9259 225.099 45.4636 233.633 42.8118 242.328C39.3342 253.721 36.2104 265.182 32.4561 276.499C24.5279 300.407 17.5976 324.185 12.3675 348.804C9.33279 363.088 6.57269 377.426 4.08724 391.811C1.98283 403.998 -0.87785 412.012 1.54764 424.293C1.91513 426.155 4.83384 425.368 4.46634 423.508C2.42383 413.204 4.49922 407.365 6.20325 397.133C7.90728 386.9 9.75057 376.69 11.7351 366.507C15.6499 346.41 19.7194 326.226 25.6226 306.581C31.3092 287.665 38.1195 269.104 43.338 250.048C45.5816 241.853 47.8891 233.55 52.2333 226.136C56.9876 218.022 64.1267 211.97 71.9815 206.784C90.809 194.35 111.567 187.114 134.425 187.725C134.806 187.734 135.158 187.498 135.35 187.178C147.448 200.3 162.871 206.828 181.113 208.111C191.358 208.831 199.677 207.733 208.014 201.428C213.919 196.963 218.207 191.411 218.426 184.642C226.903 185.616 235.433 186.265 243.837 187.766C250.139 188.893 261.57 190.445 264.063 197.31C264.775 199.272 267.993 198.431 267.276 196.452ZM132.712 14.7571C134.145 16.8775 134.572 21.1052 134.959 22.6975C135.311 24.152 135.663 25.6065 136.015 27.061C136.185 27.759 137.557 31.6584 137.284 32.298L137.282 32.2999C133.131 27.4062 131.406 21.026 132.712 14.7571ZM216.306 88.1636C218.573 85.8545 221.487 84.3679 224.822 83.8208C225.329 83.7378 225.828 83.7001 226.319 83.685C226.393 85.3942 226.423 87.1052 226.414 88.8182C225.505 89.0408 224.565 89.1823 223.619 89.2596C220.988 89.4747 218.698 88.8012 216.306 88.1636ZM199.778 202.679C191.794 206.526 181.585 205.343 173.02 204.051C158.065 201.793 145.891 194.746 136.05 183.72C137.82 180.352 143.458 181.379 147.255 181.03C146.92 181.629 146.938 182.475 147.642 183.001C159.197 191.6 173.902 196.125 188.463 194.512C193.358 193.971 199.192 192.601 202.165 188.395C203.544 186.444 203.886 184.114 204.701 181.943C205.695 179.296 205.933 177.988 208.936 177.698C209.909 177.604 212.569 178.039 214.447 178.981C214.393 179.218 214.381 179.477 214.466 179.769C217.52 190.275 208.704 198.38 199.778 202.679Z" fill="black"/>
<path d="M93.3078 241.234C91.7469 248.76 90.6541 256.449 90.2789 264.139C88.6251 258.126 85.9888 252.165 84.043 246.42C83.5285 244.9 81.0721 245.538 81.5672 247.086C84.1958 255.304 88.0642 264.025 88.6135 272.677C89.1628 281.334 88.1648 290.291 87.5033 298.924C86.1532 316.522 82.1881 334.538 83.3835 352.218C83.4898 353.801 85.6852 353.747 85.865 352.218C86.9501 343.027 86.9598 333.719 87.923 324.502C88.8921 315.231 90.0545 305.991 90.7818 296.696C91.4491 288.182 92.6328 279.167 91.6115 270.653C91.6077 270.615 91.598 270.575 91.5922 270.536C91.9752 270.398 92.2963 270.074 92.3524 269.568C93.3601 260.207 94.2517 250.861 95.4954 241.523C95.656 240.316 93.5554 240.042 93.3078 241.234Z" fill="black"/>
<path d="M120.052 95.5304C115.824 98.23 115.149 104.212 115.605 108.666C116.621 118.574 125.048 126.394 134.876 123.638C135.605 132.361 136.303 141.088 137.044 149.811C137.783 158.531 137.719 167.784 139.62 176.338C139.976 177.939 142.367 177.487 142.442 175.966C142.887 167.005 141.193 157.614 140.435 148.674C139.663 139.575 138.839 130.48 138.063 121.381C137.951 120.074 136.732 119.419 135.526 119.961C127.423 123.598 120.71 117.369 119.162 109.891C118.619 107.259 118.296 103.314 119.578 100.826C123.239 93.7193 128.475 97.2471 132.835 100.111C133.868 100.79 134.758 99.2053 133.796 98.5073C129.895 95.6757 124.818 92.4874 120.052 95.5304Z" fill="black"/>
<path d="M128.195 117.229C131.562 114.849 135.073 113.377 139.139 112.583C140.678 112.281 140.531 110.413 139.529 109.666C135.854 106.927 132.222 104.25 128.261 101.905C126.644 100.949 125.201 103.386 126.785 104.367C129.626 106.127 132.442 107.995 135.063 110.076C131.812 110.953 128.855 112.66 126.516 115.107C125.497 116.173 126.866 118.169 128.195 117.229Z" fill="black"/>
<path d="M197.484 113.607C196.465 114.035 196.972 115.763 198.055 115.661C201.204 115.369 207.531 115.05 209.871 112.798C211.786 110.954 211.457 107.479 211.354 105.085C210.906 94.5907 206.068 84.7921 205.039 74.3502C204.873 72.6618 202.289 72.5882 202.285 74.3502C202.269 81.7529 204.647 88.5199 206.457 95.6302C207.343 99.1089 209.302 104.557 208.128 108.074C206.826 111.981 200.842 112.198 197.484 113.607Z" fill="black"/>
<path d="M197.085 126.702C192.416 124.283 187.182 118.658 185.939 113.594C185.531 111.932 182.995 112.643 183.331 114.294C186.2 128.317 203.83 136.2 215.607 127.247C216.615 126.481 215.52 124.806 214.375 125.183C208.408 127.143 203.325 129.932 197.085 126.702Z" fill="black"/>
<path d="M188.06 70.8736C187.964 70.5209 187.739 70.3114 187.474 70.2058C187.414 70.1756 187.335 70.1719 187.265 70.1549C187.223 70.1473 187.182 70.1266 187.138 70.1247C187.093 70.119 187.06 70.0964 187.012 70.0945C182.02 69.9002 176.832 70.9 172.068 72.2508C167.744 73.477 163.473 75.2051 159.697 77.6198C157.991 78.7121 153.763 80.8797 153.902 83.336C154.237 89.1936 163.426 84.2528 165.082 83.6246C172.542 80.793 180.652 78.8876 188.625 78.0783C189.32 78.0085 189.873 77.4557 189.674 76.7351C189.136 74.7806 188.598 72.8262 188.06 70.8736Z" fill="black"/>
<path d="M187.637 85.513C177.745 84.0641 168.014 87.5335 159.301 91.7781C158.135 92.346 158.411 93.8344 159.301 94.4627C167.537 100.275 177.372 102.854 186.993 98.679C189.53 97.5773 196.161 94.3627 196.915 90.8386C197.153 90.5311 197.26 90.1501 197.078 89.7218C195.849 86.8336 190.265 85.8978 187.637 85.513ZM163.339 93.2911C169.521 90.4029 176.277 88.1749 183.159 88.1503C183.387 90.8443 183.678 93.5326 184.039 96.2115C176.889 98.7149 169.798 97.0396 163.339 93.2911Z" fill="black"/>
<path d="M170.314 119.53C173.529 116.667 174.475 111.72 169.908 108.845C165.916 106.33 159.233 108.458 157.608 112.848C156.423 116.052 157.972 120.153 161.177 121.4C162.769 122.019 164.552 121.936 166.225 121.598C167.775 121.287 169.185 120.538 170.314 119.53Z" fill="#BA1B2E"/>
<path d="M229.353 109.887C226.816 108.21 225.642 104.857 228.525 102.403C231.046 100.256 235.922 101.077 237.512 103.974C238.67 106.089 238.019 109.098 235.916 110.285C234.872 110.874 233.62 110.992 232.419 110.923C231.305 110.858 230.245 110.477 229.353 109.887Z" fill="#BA1B2E"/>
<path d="M398.809 317.586C397.319 315.292 393.012 315.603 390.656 315.567C387.527 315.52 382.865 314.363 380.827 317.163C380.233 317.978 381.225 319.24 382.19 318.893C384.397 318.095 386.614 318.553 388.91 318.619C390.459 318.665 394.345 318.197 395.598 319.172C397.476 320.632 392.132 324.002 390.857 324.498C388.045 325.594 384.958 325.85 381.962 326.173C375.27 325.249 368.281 328.52 362.167 331.367C357.748 333.425 345.86 336.979 352.367 343.606C353.628 344.891 355.086 345.495 356.665 345.695C353.059 347.032 348.912 349.021 348.435 352.899C348.013 356.327 350.479 357.487 353.554 357.697C352.291 358.089 351.088 358.599 350.032 359.368C348.096 360.781 346.818 363.238 347.881 365.59C349.173 368.444 352.746 368.503 355.506 368.654C355.978 368.68 356.454 368.682 356.928 368.693C355.291 369.05 353.755 369.597 352.639 370.619C346.732 376.028 359.069 379.524 362.703 379.939C370.007 380.775 381.476 380.561 387.086 375.098C391.556 370.746 391.01 364.83 384.407 364.22C384.229 364.124 384.02 364.058 383.778 364.03C385.639 363.128 387.362 361.979 388.828 360.461C389.062 360.219 389.157 359.927 389.178 359.632C393.144 354.601 390.391 350.447 385.24 349.728C388.184 348.16 391.192 345.744 390.815 342.165C390.505 339.22 388.548 337.786 386.161 337.26C389.935 334.783 392.47 331.568 388.732 328.52C390.979 328.029 393.138 327.282 395.027 325.956C397.333 324.336 400.733 320.549 398.809 317.586ZM385.184 346.272C383.915 347.276 382.111 347.889 380.618 348.438C378.985 349.038 377.302 349.477 375.635 349.97C371.407 351.217 367.196 352.499 362.877 353.428C359.365 354.182 344.825 355.612 355.413 349.722C358.548 347.979 362.421 347.245 365.749 345.899C371.03 343.763 376.09 341.573 381.565 339.943C381.736 339.892 381.875 339.807 382.004 339.711C383.066 339.665 384.126 339.682 385.186 339.811C387.807 342.782 387.805 344.936 385.184 346.272ZM384.525 373.438C382.558 375.066 379.952 375.67 377.484 376.179C372.049 377.302 365.968 377.679 360.506 376.517C359.688 376.343 358.711 376.17 357.953 375.809C356.666 375.66 355.87 375.017 355.564 373.881C354.543 372.83 354.862 372.251 356.523 372.144C357.895 371.244 360.427 371.41 361.97 371.159C369.328 369.965 376.242 367.673 383.709 366.963C383.85 366.95 383.96 366.899 384.08 366.862C388.324 367.386 387.026 371.368 384.525 373.438ZM387.325 358.114C387.24 358.153 387.153 358.17 387.068 358.233C381.993 361.949 376.357 363.387 370.167 364.305C366.363 364.869 362.483 365.586 358.632 365.649C355.953 365.692 347.763 365.618 353.361 361.076C354.738 359.957 357.521 359.895 359.196 359.434C361.56 358.783 363.78 357.802 366.09 356.978C369.394 355.797 372.753 354.78 376.15 353.886C377.819 353.446 379.498 352.982 381.196 352.652C385.171 351.877 390.797 353.35 387.325 358.114ZM368.697 331.751C374.264 329.386 380.186 327.563 386.002 329.969C386.062 330.074 386.111 330.182 386.206 330.276C390.329 334.451 371.983 339.25 370.202 339.72C367.705 340.377 365.258 341.222 362.746 341.814C360.117 342.435 349.852 344.152 357.196 337.049C359.574 334.747 365.587 333.072 368.697 331.751Z" fill="black"/>
<path d="M362.742 341.816C365.256 341.224 367.703 340.379 370.198 339.722C371.98 339.252 390.326 334.453 386.202 330.278C386.109 330.184 386.059 330.076 385.999 329.971C380.183 327.565 374.262 329.386 368.693 331.753C365.585 333.074 359.572 334.747 357.189 337.051C349.849 344.152 360.113 342.435 362.742 341.816Z" fill="white"/>
<path d="M382.004 339.709C381.875 339.805 381.735 339.89 381.565 339.941C376.089 341.571 371.03 343.761 365.749 345.896C362.42 347.243 358.548 347.975 355.413 349.72C344.825 355.61 359.362 354.18 362.877 353.425C367.194 352.499 371.407 351.214 375.635 349.968C377.302 349.475 378.987 349.036 380.617 348.436C382.111 347.889 383.915 347.274 385.184 346.27C387.805 344.934 387.807 342.782 385.188 339.807C384.126 339.68 383.066 339.663 382.004 339.709Z" fill="white"/>
<path d="M381.198 352.65C379.499 352.98 377.821 353.444 376.151 353.884C372.755 354.778 369.395 355.793 366.092 356.976C363.782 357.802 361.562 358.783 359.198 359.432C357.521 359.893 354.74 359.957 353.363 361.074C347.765 365.618 355.954 365.69 358.633 365.646C362.484 365.584 366.364 364.867 370.169 364.303C376.358 363.386 381.993 361.947 387.07 358.231C387.155 358.168 387.242 358.151 387.327 358.112C390.797 353.35 385.17 351.877 381.198 352.65Z" fill="white"/>
<path d="M384.078 366.861C383.956 366.899 383.848 366.95 383.707 366.963C376.241 367.673 369.326 369.965 361.968 371.159C360.425 371.41 357.893 371.244 356.522 372.144C354.862 372.251 354.541 372.83 355.562 373.881C355.868 375.017 356.665 375.66 357.951 375.809C358.707 376.171 359.684 376.343 360.504 376.517C365.966 377.679 372.048 377.301 377.483 376.179C379.949 375.669 382.554 375.066 384.523 373.438C387.026 371.368 388.324 367.386 384.078 366.861Z" fill="white"/>
</svg>
