<svg width="238" height="244" viewBox="0 0 238 244" fill="none" xmlns="http://www.w3.org/2000/svg">
<path d="M40.9584 100.19C37.2463 99.7787 35.8633 95.0551 35.3652 91.9846C35.326 91.7437 34.9162 91.749 34.8726 91.9846C34.4432 94.2803 33.8133 96.7603 32.3833 98.6564C31.591 99.59 30.596 100.211 29.3971 100.517C29.129 100.603 29.1682 101.01 29.4647 101.008C33.7293 100.986 34.7582 105.423 35.3227 108.718C35.3718 109.004 35.8186 108.924 35.8241 108.652C35.8938 105.445 36.9848 100.852 40.9584 100.69C41.2941 100.676 41.2789 100.225 40.9584 100.19Z" fill="#BA1B2E"/>
<path d="M71.2044 84.6502C68.8786 84.3922 68.0176 81.3739 67.707 79.4555C67.6677 79.2146 67.258 79.22 67.2144 79.4555C66.9408 80.9188 66.5397 82.4962 65.6297 83.7059C65.1349 84.2857 64.5158 84.6725 63.7682 84.8633C63.5001 84.9486 63.5393 85.3557 63.8358 85.3536C66.5136 85.3408 67.149 88.1619 67.5032 90.2306C67.5522 90.5162 67.9991 90.4363 68.0045 90.1645C68.0481 88.163 68.7162 85.2513 71.2044 85.15C71.5401 85.1362 71.5259 84.6864 71.2044 84.6502Z" fill="#BA1B2E"/>
<path d="M58.5557 14.6129C53.8616 14.1631 52.0644 8.09558 51.4421 4.22358C51.4029 3.98271 50.9931 3.98804 50.9495 4.22358C50.4154 7.10653 49.6362 10.2922 47.8041 12.6497C46.6848 13.7826 45.5797 14.5564 44.0026 15.0232C43.7334 15.1031 43.7749 15.522 44.0702 15.5134C49.3735 15.3728 50.8089 21.0982 51.5173 25.2792C51.5653 25.5638 52.0132 25.4849 52.0186 25.2132C52.0993 21.1589 53.4976 15.2555 58.5557 15.1127C58.8903 15.1031 58.8783 14.6438 58.5557 14.6129Z" fill="#BA1B2E"/>
<path d="M50.6984 70.1706C49.7284 73.3637 51.2084 76.8467 50.8891 80.0856C50.8215 80.7752 49.8428 81.1812 49.4516 80.4661C49.3426 80.2668 49.2336 80.0675 49.1246 79.8682C48.9524 79.801 48.79 79.6934 48.6701 79.4941C46.6887 76.1838 43.781 71.2321 39.2929 71.166C31.9253 71.0584 38.1431 78.4421 40.1887 80.3318C45.5923 85.3229 51.0112 90.299 54.2295 96.8685C54.8628 94.7465 55.205 92.4551 55.6344 90.3672C56.491 86.2011 57.2779 81.9635 57.4752 77.711C57.5678 75.7223 57.5373 73.677 56.8845 71.7661C56.0398 69.2934 51.9092 66.1835 50.6984 70.1706Z" fill="white"/>
<path d="M49.8791 67.9458C48.0874 70.1754 48.6236 73.4676 49.0498 76.4849C47.1338 73.5198 44.6848 70.4952 41.2234 69.5796C38.2644 68.7974 34.2678 69.7651 33.9452 73.214C33.5605 77.3172 37.483 80.3952 40.1531 82.8838C45.3921 87.7673 50.7718 92.802 53.4234 99.5538C53.6697 100.182 54.7716 100.567 55.1182 99.7701C56.8434 95.8022 57.4352 91.0787 58.1535 86.8635C59.0101 81.8383 60.2841 75.8624 58.4248 70.9161C57.2859 67.8882 52.6267 64.5257 49.8791 67.9458ZM57.4766 77.7095C57.2794 81.9619 56.4925 86.1995 55.6358 90.3657C55.2064 92.4546 54.8642 94.745 54.231 96.8669C51.0126 90.2974 45.5938 85.3213 40.1902 80.3302C38.1434 78.4406 31.9257 71.0568 39.2943 71.1645C43.7824 71.2305 46.6902 76.1822 48.6716 79.4925C48.7915 79.6918 48.9538 79.7995 49.126 79.8666C49.235 80.0659 49.344 80.2652 49.453 80.4645C49.8443 81.1796 50.823 80.7736 50.8906 80.084C51.2099 76.8451 49.7298 73.3632 50.6998 70.169C51.9107 66.1819 56.0402 69.2919 56.8859 71.7634C57.5388 73.6755 57.5682 75.7207 57.4766 77.7095Z" fill="#BA1B2E"/>
<path d="M23.5849 38.9558C30.6167 43.3788 37.2584 48.1844 42.2609 54.8264C43.269 56.164 45.7169 58.578 46.6432 55.5703C46.834 54.9532 46.7315 54.0953 46.7653 53.4611C46.8623 51.6546 46.9441 49.8471 46.9898 48.0395C47.0836 44.3391 47.0356 40.628 46.6999 36.9383C46.3359 32.9341 45.6395 28.9086 44.2303 25.1198C43.0238 21.8766 40.3187 16.1235 36.4617 15.1611C29.7851 13.4942 33.7425 29.6845 34.5097 32.8861C34.6688 33.5523 33.6825 34.0148 33.3468 33.3657C32.3431 31.4271 29.8298 29.3978 28.1351 28.0166C26.1199 26.3742 23.5336 25.0494 21.0335 24.3076C16.9388 23.0937 12.8562 24.9791 14.1902 29.805C15.3433 33.9764 20.143 36.7624 23.5849 38.9558Z" fill="white"/>
<path d="M22.7436 40.3622C26.9385 43.0277 31.1116 45.818 34.7899 49.1496C36.4084 50.6151 37.92 52.1924 39.2987 53.8764C40.6676 55.5475 41.7738 57.8635 43.5536 59.1627C49.8007 63.7253 48.8602 48.5282 48.883 45.9704C48.9528 38.2637 48.4743 30.0859 45.3268 22.9142C43.7498 19.3193 37.1724 9.08139 32.2407 14.5094C30.2048 16.7508 30.6626 20.6878 30.9863 23.3917C31.2609 25.6938 31.88 27.8382 32.474 30.0049C31.0495 28.467 29.2632 27.0527 27.793 26.0519C24.8776 24.0674 20.7393 21.858 17.049 22.3824C13.6475 22.8663 12.0476 26.1926 12.4683 29.3175C13.1549 34.414 18.759 37.8011 22.7436 40.3622ZM21.0336 24.3072C23.5337 25.0479 26.12 26.3738 28.1352 28.0161C29.8299 29.3974 32.3432 31.4267 33.3469 33.3653C33.6826 34.0144 34.67 33.5518 34.5098 32.8857C33.7426 29.6841 29.7852 13.4937 36.4618 15.1606C40.3188 16.123 43.0239 21.8772 44.2304 25.1193C45.6396 28.9082 46.336 32.9337 46.7 36.9378C47.0346 40.6276 47.0837 44.3376 46.9899 48.0391C46.9442 49.8477 46.8635 51.6553 46.7654 53.4607C46.7316 54.0948 46.833 54.9528 46.6434 55.5699C45.7159 58.5775 43.2691 56.1646 42.261 54.826C37.2585 48.1851 30.6168 43.3794 23.585 38.9554C20.1432 36.762 15.3434 33.976 14.1903 29.8045C12.8563 24.9786 16.9389 23.0933 21.0336 24.3072Z" fill="#BA1B2E"/>
<path d="M23.1715 60.0874C23.154 59.9713 23.166 59.8657 23.1878 59.7656C22.5611 56.8741 21.6446 53.8941 19.4114 51.7796C18.4752 50.3717 17.4224 50.3621 16.2541 51.7498C16.2671 52.7996 16.3794 53.8408 16.5897 54.8725C16.8862 56.3508 17.4028 57.7438 17.9935 59.1293C18.3717 60.0149 16.9036 60.5574 16.4459 59.7677C15.4181 57.9953 13.0215 56.5916 11.063 56.0087C9.13939 55.4363 6.97927 56.2378 7.89367 58.4269C8.86583 60.7535 12.3501 62.2702 14.4383 63.4457C17.0181 64.8984 21.4244 66.594 24.0891 69.1061C23.8069 66.0995 23.6129 63.0844 23.1715 60.0874Z" fill="white"/>
<path d="M24.6599 59.2866C23.8894 55.7322 21.6268 48.6394 16.9938 48.7097C13.7634 48.7598 14.2462 52.8386 15.1476 56.0701C13.1324 54.6238 10.5559 53.639 8.55056 54.076C5.93923 54.644 5.36596 57.6314 6.57245 59.6447C8.29662 62.5202 12.1471 64.2404 14.9906 65.7932C17.7927 67.3226 23.7543 69.4883 24.5226 72.9489C24.7286 73.8762 26.3776 73.6886 26.2457 72.7208C25.655 68.3714 25.6822 63.9558 24.8234 59.6405C24.794 59.4923 24.7341 59.3793 24.6599 59.2866ZM14.438 63.4464C12.3499 62.2708 8.86554 60.7542 7.89337 58.4276C6.97897 56.2385 9.138 55.437 11.0627 56.0093C13.0212 56.5923 15.4178 57.9949 16.4456 59.7683C16.9033 60.5592 18.3714 60.0156 17.9932 59.1299C17.4014 57.7433 16.8859 56.3514 16.5895 54.8732C16.3791 53.8415 16.2668 52.8002 16.2538 51.7504C17.4221 50.3628 18.4749 50.3724 19.4111 51.7803C21.6454 53.8948 22.5609 56.8747 23.1875 59.7662C23.1657 59.8664 23.1548 59.9719 23.1712 60.0881C23.6126 63.0851 23.8066 66.1002 24.0888 69.1089C21.423 66.5958 17.0178 64.899 14.438 63.4464Z" fill="#BA1B2E"/>
<path d="M217.573 43.5859C215.247 43.328 214.387 40.3097 214.076 38.3913C214.036 38.1504 213.627 38.1558 213.583 38.3913C213.309 39.8546 212.908 41.432 211.998 42.6417C211.504 43.2214 210.884 43.6083 210.137 43.7991C209.869 43.8844 209.908 44.2915 210.204 44.2894C212.882 44.2766 213.517 47.0977 213.872 49.1664C213.921 49.452 214.368 49.3721 214.373 49.1003C214.417 47.0988 215.086 44.187 217.573 44.0858C217.908 44.0719 217.893 43.6211 217.573 43.5859Z" fill="#BA1B2E"/>
<path d="M235.982 119.454C231.288 119.004 229.491 112.937 228.868 109.065C228.829 108.824 228.419 108.829 228.376 109.065C227.842 111.948 227.063 115.133 225.23 117.491C224.111 118.625 223.006 119.398 221.428 119.864C221.159 119.944 221.2 120.363 221.496 120.355C226.799 120.214 228.234 125.939 228.943 130.121C228.991 130.406 229.438 130.326 229.444 130.054C229.525 126 230.923 120.097 235.981 119.954C236.317 119.944 236.305 119.486 235.982 119.454Z" fill="#BA1B2E"/>
<path d="M229.767 83.4935C228.114 83.242 226.031 84.4623 224.678 85.2276C221.828 86.8401 217.707 89.5749 216.591 92.8074C216.182 93.9915 214.342 93.5141 214.665 92.2884C215.361 89.6431 215.486 86.6579 215.127 83.955C214.976 82.8253 214.746 80.7065 213.567 80.1001C211.366 78.9671 209.27 82.2871 208.721 83.8058C206.884 88.8885 207.609 94.8463 208.352 100.029C209.01 104.612 209.425 109.137 209.405 113.718C214.705 104.916 224.395 99.3855 229.97 90.6918C231.079 88.9674 233.303 84.0328 229.767 83.4935Z" fill="white"/>
<path d="M217.181 88.6561C217.529 83.2909 216.656 75.9199 210.85 78.4629C206.109 80.5401 205.748 86.8059 205.619 91.2033C205.494 95.4941 206.354 99.672 206.882 103.911C207.474 108.66 207.547 113.424 207.216 118.193C207.128 119.469 209.158 119.464 209.246 118.193C209.256 118.052 209.259 117.91 209.268 117.768C212.99 110.343 219.296 105.181 225.129 99.3459C228.618 95.8554 235.996 89.1133 233.113 83.5477C230.302 78.1229 221.607 83.843 217.181 88.6561ZM229.972 90.6906C224.398 99.3843 214.708 104.915 209.408 113.717C209.427 109.136 209.012 104.611 208.355 100.028C207.61 94.8451 206.887 88.8873 208.723 83.8046C209.273 82.2859 211.368 78.9659 213.57 80.0989C214.749 80.7053 214.979 82.8251 215.129 83.9538C215.489 86.6577 215.363 89.6419 214.667 92.2872C214.345 93.5128 216.184 93.9903 216.593 92.8062C217.709 89.5737 221.83 86.84 224.681 85.2264C226.034 84.4611 228.116 83.2408 229.77 83.4923C233.302 84.0327 231.079 88.9673 229.972 90.6906Z" fill="#BA1B2E"/>
<path d="M231.636 53.3135C229.009 54.8706 226.597 57.3048 224.74 59.6805C224.156 60.4276 222.637 60.0354 223.033 58.9771C223.667 57.2857 224.137 55.4941 224.426 53.7163C224.511 53.193 225.045 50.7758 224.557 50.3058C223.187 48.9896 221.928 51.912 221.588 52.7156C219.452 57.7653 219.814 63.431 219.784 68.8484C221.333 67.5598 223.157 66.5058 224.794 65.4325C228.064 63.2882 231.356 61.1683 234.106 58.3898C235.206 57.2782 236.487 56.0589 236.334 54.3569C236.06 51.3098 233.392 52.2722 231.636 53.3135Z" fill="white"/>
<path d="M232.425 50.9334C230.05 51.818 227.825 53.6107 225.92 55.56C226.775 51.5676 227.109 46.3793 222.878 48.0185C220.486 48.9447 219.421 52.66 218.856 54.8353C217.469 60.1674 218.004 65.766 217.792 71.2058C217.773 71.6726 218.047 71.9582 218.392 72.069C218.72 72.263 219.131 72.2683 219.451 71.8783C222.32 68.3782 227.254 66.2562 230.903 63.6184C233.81 61.5178 237.925 58.5496 237.999 54.5923C238.06 51.3161 235.345 49.8442 232.425 50.9334ZM234.105 58.3907C231.354 61.1703 228.063 63.2902 224.792 65.4335C223.155 66.5067 221.332 67.5608 219.783 68.8493C219.813 63.4319 219.451 57.7662 221.587 52.7165C221.927 51.9118 223.186 48.9905 224.556 50.3068C225.045 50.7768 224.51 53.194 224.425 53.7173C224.136 55.495 223.665 57.2855 223.032 58.978C222.635 60.0363 224.155 60.4285 224.739 59.6814C226.597 57.3058 229.008 54.8715 231.634 53.3144C233.391 52.2731 236.058 51.3097 236.332 54.3578C236.485 56.0588 235.205 57.2791 234.105 58.3907Z" fill="#BA1B2E"/>
<path d="M143.068 192.654C142.734 193.767 144.511 194.243 144.841 193.132C146.483 187.605 150.497 183.003 154.103 178.589C157.588 174.323 160.636 169.962 163.593 165.332C169.98 155.33 176.234 145.514 179.365 134.013C179.399 133.889 179.385 133.783 179.353 133.685C179.196 133.197 178.365 133.076 178.183 133.695C174.646 145.686 167.571 155.935 160.895 166.409C158.685 169.877 156.217 173.087 153.678 176.277C152.624 177.602 151.561 178.924 150.493 180.258C147.466 184.038 144.473 187.992 143.068 192.654Z" fill="white"/>
<path d="M222.587 137.699C221.938 136.286 221.133 135.029 220.223 133.886C220.101 133.716 219.964 133.556 219.834 133.39C219.813 133.365 219.794 133.338 219.772 133.314C217.468 130.382 214.194 128.228 210.105 126.903C206.886 125.701 203.415 124.99 200.003 124.605C196.913 124.258 193.781 124.101 190.667 123.823C188.932 123.604 187.259 123.4 185.802 123.236C184.332 123 182.872 122.705 181.432 122.304C178.121 121.385 175.191 119.904 174.381 116.4C173.828 114.01 174.16 111.398 174.185 108.972C174.194 108.117 172.837 108.116 172.825 108.972C172.78 112.282 172.195 116.114 173.94 119.134C175.39 121.644 178.149 122.867 180.939 123.63C180.822 126.973 180.267 130.334 179.353 133.685C179.385 133.783 179.399 133.888 179.365 134.013C176.234 145.513 169.979 155.329 163.592 165.332C160.636 169.962 157.588 174.323 154.103 178.589C150.496 183.003 146.483 187.604 144.841 193.132C144.511 194.244 142.732 193.766 143.068 192.654C144.473 187.992 147.466 184.038 150.494 180.259C151.562 178.925 152.625 177.603 153.679 176.278C140.073 154.12 139.248 130.038 142.205 119.038C143.729 118.953 145.196 118.67 146.551 118.077C151.664 115.841 151.528 109.574 151.531 104.942C151.531 104.128 150.294 104.14 150.247 104.942C150.069 107.97 150.152 111.661 148.456 114.323C146.121 117.989 140.933 117.34 137.187 116.787C130.675 115.825 123.964 113.569 117.356 115.146C116.134 115.436 115.03 115.87 114.019 116.412C113.937 116.435 113.847 116.457 113.78 116.485C105.083 120.026 101.669 133.961 99.4535 141.827C96.8945 150.91 71.8176 240.512 77.7531 240.481C84.0732 240.448 116.462 241.059 124.851 241.38C125.213 241.394 125.582 241.408 125.96 241.422C125.698 232.492 128.786 223.952 131.362 215.495C131.664 214.502 133.243 214.923 132.951 215.923C130.471 224.398 128.194 232.651 127.559 241.477C151.904 242.3 204.484 242.799 206.215 241.508C206.523 241.279 206.793 240.919 207.04 240.487C207.451 240.603 207.94 240.467 208.019 239.978C210.085 227.088 211.045 213.982 212.453 201.013C213.874 187.928 217.541 175.207 221.172 162.579C223.437 154.704 226.221 145.607 222.587 137.699Z" fill="black"/>
<path d="M131.36 215.494C128.785 223.951 125.697 232.492 125.959 241.422C125.963 241.552 125.96 241.682 125.965 241.812C126.006 242.799 127.461 242.789 127.527 241.812C127.535 241.7 127.549 241.59 127.558 241.477C128.193 232.649 130.47 224.397 132.949 215.923C133.241 214.923 131.663 214.501 131.36 215.494Z" fill="white"/>
<path d="M173.493 116.372C173.399 116.384 173.306 116.396 173.213 116.407C172.901 116.445 172.636 116.582 172.429 116.77C169.568 117.942 164.572 117.369 161.668 117.121C157.87 116.797 153.223 116.042 150.584 113.081C149.981 112.406 148.759 113.306 149.3 114.05C151.894 117.619 156.423 118.707 160.661 119.226C164.467 119.692 170.361 120.389 173.973 118.724C174.311 118.568 174.491 118.29 174.548 117.982C174.858 117.234 174.508 116.248 173.493 116.372Z" fill="black"/>
<path d="M165.218 149.291C160.928 148.479 159.827 142.599 159.596 138.977C159.533 137.994 158.084 137.726 157.794 138.739C157.01 141.48 155.965 144.293 154.123 146.526C152.881 147.313 151.727 148.003 150.242 148.293C149.089 148.518 149.449 150.125 150.506 150.198C155.212 150.518 155.928 156.065 156.192 159.856C156.28 161.123 158.029 161.081 158.174 159.856C158.61 156.197 160.392 150.842 164.963 151.131C166.03 151.201 166.283 149.492 165.218 149.291ZM157.446 154.878C156.818 152.435 155.685 150.269 153.58 149.117C154.173 148.755 154.724 148.306 155.244 147.738C155.255 147.726 155.259 147.711 155.268 147.699C156.619 146.445 157.566 144.741 158.294 142.957C158.861 145.569 159.936 148.188 161.874 149.761C159.782 150.66 158.36 152.637 157.446 154.878Z" fill="#BA1B2E"/>
<path d="M143.77 118.478C143.604 124.42 144.674 130.121 148.594 134.86C151.508 138.382 156.996 139.991 161.528 140.117C172.02 140.411 176.801 130.568 178.546 121.883C178.772 120.751 176.995 120.269 176.772 121.404C175.282 129.03 171.498 138.259 162.205 138.45C157.99 138.536 152.548 136.997 149.805 133.818C146.13 129.558 144.983 123.907 144.996 118.477C144.998 117.705 143.792 117.707 143.77 118.478Z" fill="black"/>
<path d="M153.166 87.0469C154.801 85.2585 155.043 82.4257 152.315 81.0636C149.931 79.872 146.308 81.4398 145.653 83.9977C145.176 85.8639 146.282 88.0828 148.152 88.6061C149.081 88.8651 150.076 88.7191 150.994 88.4367C151.846 88.1745 152.592 87.6747 153.166 87.0469Z" fill="#BA1B2E"/>
<path d="M185.205 91.0939C186.559 89.6114 186.76 87.2635 184.499 86.1348C182.522 85.1479 179.521 86.446 178.978 88.5659C178.582 90.1123 179.5 91.9519 181.05 92.3856C181.819 92.6009 182.644 92.4794 183.405 92.2449C184.11 92.0286 184.729 91.6151 185.205 91.0939Z" fill="#BA1B2E"/>
<path d="M187.281 84.2494C188.559 85.6232 190.619 87.2485 192.605 87.3167C193.395 87.3444 193.62 86.2925 192.994 85.912C192.249 85.4601 191.376 85.2533 190.615 84.8068C190.169 84.5457 189.761 84.243 189.371 83.9179C190.846 83.2923 192.319 82.6645 193.788 82.0251C194.548 81.6947 194.001 80.3965 193.216 80.6982C191.356 81.4133 189.501 82.137 187.65 82.8756C187.064 83.11 186.821 83.7548 187.281 84.2494Z" fill="black"/>
<path d="M173.678 89.9319C172.234 92.7509 169.655 95.2714 166.165 94.7236C162.349 94.1247 161.029 90.7514 159.902 87.6127C159.603 86.7803 158.125 86.8347 158.218 87.8355C158.59 91.8449 161.543 95.8864 165.783 96.561C170.063 97.2421 173.437 94.3367 175.109 90.7504C175.545 89.8157 174.162 88.9886 173.678 89.9319Z" fill="black"/>
<path d="M150.016 65.9784C155.259 64.6835 159.522 65.6118 164.359 67.6783C165.534 68.1803 166.411 66.7436 165.365 65.9955C160.951 62.8429 154.559 62.5391 149.51 64.1836C148.354 64.5609 148.818 66.2747 150.016 65.9784Z" fill="black"/>
<path d="M168.892 80.482C168.909 80.4884 168.924 80.4937 168.94 80.4991C168.968 80.5055 168.997 80.5087 169.026 80.5129C169.167 80.5396 169.317 80.5364 169.475 80.4596C170.422 80.0013 172.203 79.9353 172.375 81.2835C172.576 82.8555 170.707 83.5142 169.708 84.3135C169.189 84.7302 169.747 85.6116 170.361 85.4091C172.337 84.7579 174.674 82.5539 173.618 80.3328C172.975 78.9792 171.49 78.6243 170.112 78.8546C170.739 76.4597 171.361 74.0638 172.005 71.6722C172.206 70.9251 171.03 70.6086 170.822 71.3536C170.057 74.0958 169.262 76.8306 168.481 79.5697C168.434 79.6677 168.414 79.7701 168.426 79.8756C168.421 80.1825 168.625 80.3999 168.892 80.482Z" fill="black"/>
<path d="M201.128 61.1772C204.665 58.3113 207.142 54.2101 204.663 49.7018C201.993 44.844 196.975 45.7989 192.829 48.0659C194.467 45.4302 195.609 42.5515 195.194 39.3786C194.61 34.9066 190.828 32.2326 186.561 31.3213C180.011 29.923 172.378 31.7551 167.362 36.2356C168.666 30.4644 167.733 23.6071 163.768 19.5636C159.118 14.8229 151.554 14.3913 145.577 16.7094C139.126 19.2108 134.912 24.5855 134.706 31.4162C134.51 37.9334 137.576 44.3846 143.344 47.2815C135.961 50.3307 134.265 64.1422 138.868 70.6264C138.111 70.2641 137.332 70.0115 136.61 69.9038C133.575 69.453 131.547 71.6538 130.823 74.3172C130.08 77.052 130.272 80.6619 131.983 83.03C133.821 85.5741 137.329 86.9276 140.342 86.0398C141.291 93.1454 142.881 99.8726 149 104.55C153.309 107.846 158.553 110.056 164.017 110.571C177.071 111.802 185.588 102.418 188.534 90.9392C193.273 92.6946 198.46 87.8378 199.234 83.3189C199.644 80.9198 198.9 78.3416 196.526 77.2023C194.33 76.1493 191.873 76.7717 189.781 77.861C192.178 75.3159 196.586 75.3361 199.719 73.9879C202.674 72.7164 205.42 70.3099 205.638 66.9505C205.839 63.8672 203.703 61.7569 201.128 61.1772ZM180.189 75.8584C180.819 75.8584 181.46 75.917 182.112 76.0545C183.09 76.2602 186.06 76.8442 187.012 77.9015C184.617 78.445 182.166 78.6592 179.814 78.2905C179.958 77.5466 180.229 76.647 180.189 75.8584ZM194.165 78.6177C198.031 78.9779 197.677 82.3373 196.761 84.5477C195.528 87.5276 191.688 90.7911 188.352 88.6808C187.83 88.3504 187.018 88.6638 186.885 89.2649C184.469 100.159 177.03 109.541 164.684 108.675C159.774 108.331 155.054 106.431 151.064 103.658C144.418 99.0381 143.045 92.1457 142.073 84.7172C141.984 84.0436 141.327 83.5277 140.643 83.9146C135.441 86.8615 131.997 80.7589 132.23 76.5618C132.336 74.6615 132.904 72.1217 135.014 71.4002C137.356 70.6008 141.603 73.0372 141.763 75.5109C141.809 76.2143 142.92 76.2271 142.893 75.5109C142.857 74.5112 142.396 73.5733 141.704 72.7569C142.078 72.612 142.383 72.2581 142.364 71.8585C142.086 65.8709 145.872 59.8599 150.372 56.0369C152.13 54.5437 154.629 52.8928 156.378 50.9041C156.623 52.9333 157.361 54.8475 159.104 56.1882C161.627 58.1301 165.237 58.1216 168.28 57.9873C173.092 57.773 178.045 56.736 182.609 58.8452C186.464 60.6272 187.967 63.994 188.31 67.7275C184.906 66.6372 180.96 66.8461 177.734 68.0312C176.767 68.3872 177.133 69.8409 178.169 69.5734C181.913 68.6046 185.072 68.9755 188.39 70.1202C188.339 72.1814 188.021 74.2682 187.621 76.2069C186.327 75.2679 184.446 74.7723 183.142 74.4334C179.611 73.5168 176.076 74.184 173.21 76.4467C172.39 77.0947 173.496 78.5175 174.348 77.8887C174.382 77.8642 174.417 77.8439 174.451 77.8205C178.15 80.518 183.188 80.4636 187.575 79.5236C187.37 80.2697 188.106 81.1574 188.936 80.6192C190.426 79.6526 192.285 78.4418 194.165 78.6177Z" fill="black"/>
<path d="M163.735 75.1921C162.447 73.4538 161.008 71.836 158.859 71.1112C155.271 69.9005 151.124 70.9493 147.474 71.2818C146.794 71.3436 146.138 72.2783 146.83 72.8037C148.793 74.2916 150.304 76.162 152.794 76.8132C156.233 77.7117 159.975 77.0093 163.474 77.0146C164.608 77.0146 164.688 75.4479 163.735 75.1921ZM154.317 75.1623C154.245 75.1506 154.181 75.1282 154.112 75.1143C154.544 74.2425 155.158 73.214 155.205 72.2815C155.382 72.2826 155.56 72.2794 155.738 72.2857C158.385 72.3849 160.165 73.4602 161.766 75.1858C159.28 75.2998 156.757 75.5716 154.317 75.1623Z" fill="black"/>
<path d="M136.217 74.2544C135.509 73.6224 134.463 74.6328 135.161 75.2871C136.258 76.3178 137.399 77.3228 138.476 78.3822C137.162 78.7957 135.785 79.2156 134.682 79.9158C133.89 80.4189 134.428 81.4506 135.291 81.328C136.97 81.0893 138.694 80.1706 140.274 79.5748C140.81 79.3723 141.219 78.5975 140.657 78.1584C139.106 76.9476 137.683 75.5621 136.217 74.2544Z" fill="black"/>
<path d="M137.785 84.1073C141.247 87.0873 139.491 93.6003 135.654 95.4452C133.545 96.4587 131.222 96.2776 130.043 94.1236C129.066 92.3373 129.168 90.0054 129.762 88.1243C130.561 85.5973 132.227 84.3482 134.335 82.8902C135.088 82.369 134.66 81.1168 133.682 81.3747C127.848 82.9158 124.885 92.931 129.929 96.7891C132.512 98.7651 136.407 97.6375 138.546 95.5262C141.656 92.4567 142.438 86.0567 138.794 83.1215C138.095 82.5577 137.087 83.5073 137.785 84.1073Z" fill="#BA1B2E"/>
<path d="M190.924 89.2892C194.363 90.4659 194.683 94.7503 193.867 97.7068C192.698 101.937 188.211 101.587 186.781 97.4628C186.484 96.6048 185.017 96.6826 185.079 97.6876C185.381 102.603 192.353 104.484 194.804 100.016C196.976 96.0548 196.176 89.448 191.302 87.9527C190.424 87.6842 190.071 88.9972 190.924 89.2892Z" fill="#BA1B2E"/>
<path d="M139.902 126.652C134.814 117.8 121.267 113.554 113.437 121.331C106.108 128.611 103.916 140.336 102.531 150.39C96.5051 138.283 92.308 121.795 77.1479 118.595C60.9818 115.182 54.4829 132.439 54.6409 145.282C54.5102 145.429 54.4186 145.618 54.4273 145.874C55.0813 165.209 69.4447 179.465 82.3934 192.54C87.7469 197.946 92.6731 203.241 96.9421 209.492C99.973 213.929 102.936 218.41 105.864 222.912C106.262 223.524 107.1 223.496 107.504 222.912C112.155 216.191 116.492 209.244 120.658 202.229C127.915 190.008 134.996 177.236 139.317 163.692C142.845 152.631 146.039 137.332 139.902 126.652Z" fill="#BA1B2E"/>
<path d="M97.6995 211.942C97.1 217.126 95.6985 222.219 94.5748 227.31C93.7073 231.241 91.9635 236.36 92.7809 240.401C92.9095 241.037 93.9154 241.006 94.0647 240.401C94.5824 238.297 94.5475 236.02 94.8985 233.874C95.3432 231.159 95.9241 228.464 96.5039 225.773C97.4891 221.202 98.5768 216.615 98.8972 211.942C98.9495 211.18 97.7845 211.209 97.6995 211.942Z" fill="white"/>
<path d="M203.64 145.457C199.848 148.266 197.806 152.327 196.175 156.586C196.684 153.114 197.303 149.668 198.756 146.4C199.223 145.348 197.637 144.433 197.168 145.492C194.33 151.909 194.541 158.843 192.784 165.52C190.907 172.656 188.047 179.481 186.361 186.704C183.456 199.146 180.762 212.004 180.581 224.844C178.118 219.131 173.554 214.591 168.257 210.668C164.38 207.797 160.267 205.25 156.365 202.413C150.434 198.098 144.837 193.258 139.149 188.638C139.047 189.068 138.92 189.485 138.766 189.886C147.015 196.705 155.144 203.377 163.952 209.499C172.031 215.114 179.803 221.724 180.747 231.998C180.842 233.032 182.486 233.058 182.419 231.998C181.462 216.932 184.615 201.778 188.056 187.161C189.625 180.495 191.908 174.159 194.032 167.662C194.321 166.777 194.564 165.884 194.775 164.983C194.988 164.892 195.172 164.721 195.272 164.454C197.65 158.042 199.214 151.323 204.38 146.399C204.866 145.938 204.206 145.036 203.64 145.457Z" fill="white"/>
<path d="M132.215 179.651C131.113 177.062 130.905 174.375 130.216 171.682C129.359 168.333 127.755 165.007 125.91 162.063C124.474 159.772 123.156 158.491 120.763 157.38C120.203 157.121 118.491 156.078 117.772 156.266C116.25 156.666 118.815 159.316 119.472 160.116C121.095 162.093 122.368 163.966 123.292 166.363C124.034 168.29 123.812 171.112 124.81 172.836C125.329 173.731 124.072 174.723 123.337 173.948C120.17 170.616 116.517 167.817 113.165 164.677C110.52 162.198 108.582 159.108 105.933 156.664C105.003 155.807 100.759 152.722 101.729 155.604C102.059 156.584 103.075 157.608 103.689 158.423C106.158 161.699 108.359 165.156 110.936 168.359C111.652 169.249 110.397 170.522 109.642 169.625C107.651 167.262 105.507 165.056 103.13 163.061C101.958 162.077 97.2181 157.542 95.556 158.182C94.5893 158.554 97.2551 161.042 97.8055 161.705C98.879 162.997 99.9536 164.29 101.027 165.581C103.173 168.167 105.316 170.755 107.461 173.341C108.226 174.264 107.055 175.446 106.118 174.654C103.742 172.651 101.365 170.646 98.988 168.642C97.9701 167.783 96.9576 166.917 95.9331 166.065C94.6209 164.975 92.1033 162.888 93.6368 166.088C94.6536 168.21 97.3598 170.267 99.0033 172.024C100.966 174.124 102.974 176.183 105.008 178.215C105.656 178.862 105.012 180.103 104.068 179.795C99.5112 178.303 97.1309 174.193 93.6804 171.241C93.1877 170.82 92.5218 170.162 91.8385 170.019C91.7393 169.999 91.6728 169.952 91.6216 169.901C91.6368 169.956 91.6521 170.014 91.6684 170.096C91.833 170.922 92.9436 171.994 93.4558 172.622C94.9413 174.442 96.5783 176.148 98.2153 177.838C100.199 179.886 102.154 181.995 104.314 183.868C107.449 186.588 110.596 187.915 114.597 188.909C119.353 190.092 123.317 193.38 125.037 197.88C130.137 196.275 136.718 193.19 137.446 187.469C134.773 186.333 133.161 181.873 132.215 179.651Z" fill="white"/>
<path d="M139.4 187.078C139.457 186.304 138.684 186.045 138.107 186.275C135.98 185.37 134.58 181.324 133.797 179.547C132.241 176.013 132.198 172.144 130.826 168.549C128.833 163.33 126.314 158.178 121.034 155.671C118.424 154.432 113.783 153.367 115.692 157.901C116.96 160.91 119.795 162.962 121.118 166.005C121.674 167.283 121.861 168.733 122.098 170.149C118.327 166.665 114.189 163.54 110.902 159.593C108.809 157.08 105.05 151.623 100.907 152.707C98.4528 153.349 99.6985 155.816 100.647 157.285C101.324 158.333 102.025 159.378 102.746 160.416C102.067 159.876 101.389 159.336 100.683 158.818C99.2964 157.804 95.0742 154.058 93.1974 156.101C91.5332 157.912 94.6731 160.881 95.6496 162.058C96.6545 163.269 97.6615 164.479 98.6664 165.689C97.5406 164.765 96.3962 163.876 95.2191 163.056C93.9952 162.202 91.9866 161.062 90.6297 162.365C88.6461 164.273 92.0487 167.227 93.3456 168.612C92.8737 168.357 92.3789 168.172 91.8612 168.098C88.002 167.543 90.2471 171.567 91.373 173.025C94.9053 177.601 99.3388 182.219 103.821 185.899C106.583 188.167 109.529 189.623 113.02 190.46C117.907 191.634 122.009 194.327 123.515 199.288C123.659 199.762 124.184 200.084 124.684 199.937C130.069 198.357 136.692 195.336 138.766 189.887C138.92 189.484 139.047 189.068 139.149 188.639C139.267 188.135 139.361 187.619 139.4 187.078ZM125.036 197.883C123.315 193.383 119.352 190.095 114.596 188.912C110.595 187.916 107.447 186.589 104.313 183.871C102.154 181.997 100.198 179.889 98.2141 177.84C96.5782 176.15 94.9401 174.446 93.4546 172.624C92.9424 171.997 91.8329 170.926 91.6673 170.099C91.6509 170.016 91.6356 169.959 91.6204 169.904C91.6716 169.955 91.7381 170.002 91.8373 170.022C92.5206 170.165 93.1865 170.821 93.6791 171.243C97.1286 174.195 99.5089 178.305 104.067 179.797C105.009 180.106 105.654 178.865 105.007 178.218C102.972 176.184 100.965 174.126 99.0021 172.027C97.3596 170.269 94.6524 168.212 93.6356 166.09C92.1021 162.89 94.6197 164.976 95.9319 166.068C96.9564 166.919 97.9689 167.786 98.9868 168.645C101.364 170.65 103.74 172.653 106.117 174.657C107.055 175.448 108.226 174.267 107.459 173.344C105.316 170.757 103.173 168.168 101.026 165.584C99.9524 164.291 98.8789 162.999 97.8043 161.708C97.2539 161.045 94.5881 158.556 95.5548 158.184C97.2158 157.545 101.956 162.08 103.128 163.063C105.505 165.058 107.65 167.265 109.64 169.627C110.397 170.525 111.651 169.251 110.935 168.361C108.359 165.159 106.158 161.701 103.687 158.425C103.074 157.611 102.058 156.587 101.728 155.606C100.758 152.724 105.003 155.81 105.931 156.666C108.581 159.11 110.519 162.201 113.164 164.679C116.515 167.821 120.168 170.619 123.336 173.95C124.071 174.724 125.329 173.734 124.809 172.839C123.81 171.115 124.033 168.292 123.291 166.365C122.367 163.968 121.094 162.096 119.471 160.119C118.814 159.318 116.249 156.669 117.771 156.269C118.49 156.079 120.202 157.124 120.761 157.383C123.155 158.493 124.472 159.773 125.909 162.066C127.754 165.009 129.358 168.336 130.215 171.684C130.904 174.378 131.113 177.065 132.214 179.653C133.16 181.877 134.772 186.337 137.444 187.475C136.717 193.192 130.135 196.277 125.036 197.883Z" fill="black"/>
<path d="M137.115 222.797C133.459 215.583 130.676 208.11 127.71 200.619C127.427 199.907 126.364 200.17 126.527 200.937C128.175 208.652 131.777 216.131 135.303 223.177C138.781 230.129 142.516 237.82 147.683 243.742C148.307 244.458 149.434 243.542 148.984 242.761C145.108 236.035 140.639 229.749 137.115 222.797Z" fill="white"/>
<path d="M102.488 155.271C100.106 160.173 97.9615 164.873 94.9731 169.489C94.4205 170.343 92.8315 169.788 93.2348 168.772C96.2243 161.24 99.3108 153.696 101.837 146.002C102.017 145.454 102.54 144.516 102.465 143.942C102.261 142.387 100.6 143.883 99.7653 144.789C98.4759 146.191 97.5408 148.106 96.6897 149.967C96.536 150.321 96.3899 150.662 96.2624 150.983C94.2364 156.086 92.2397 161.538 89.0922 166.101C88.5265 166.921 86.9604 166.417 87.3625 165.388C89.466 160.008 92.2135 154.764 94.851 149.611C95.6717 147.666 96.464 145.689 96.973 143.69C97.0548 143.368 97.628 141.065 97.2226 140.802C96.488 140.325 94.1884 143.368 93.8712 143.8C92.2648 145.995 91.1575 148.526 90.085 150.997C88.169 155.415 86.447 159.969 83.1665 163.626C82.4603 164.414 81.0969 163.371 81.6876 162.51C84.9125 157.813 87.4377 152.738 89.3254 147.394C89.9477 145.631 91.2654 142.76 90.9188 140.846C90.4621 138.328 88.8753 140.781 88.157 141.892C86.3424 144.7 85.1806 147.816 83.6254 150.752C80.9911 155.725 77.4 160.468 73.6193 164.66C72.9119 165.444 71.5758 164.414 72.149 163.55C73.4852 161.535 72.5436 158.651 73.1364 156.385C73.5408 154.839 74.3745 153.372 74.8748 151.85C75.1189 151.108 75.5298 150.186 75.5407 149.399C75.5767 146.86 73.1953 149.186 72.3082 150.259C70.5589 152.374 69.5333 155.38 68.3192 157.827C66.6495 161.192 65.0736 164.79 65.2512 168.612C65.3875 171.535 66.5972 174.041 66.2125 177.027C65.5618 182.075 62.3903 186.427 59.5142 190.57C65.1368 190.67 71.276 193.754 75.5603 196.621C76.6567 197.355 78.3831 198.431 79.5983 199.676C80.4702 196.408 81.5666 193.155 84.1006 190.778C85.7441 189.236 87.7723 188.061 89.5663 186.695C92.4609 184.491 94.4238 181.797 96.1207 178.63C97.7294 175.628 99.1179 172.511 100.491 169.403C102.163 165.618 104.121 161.817 105.123 157.796C105.602 155.871 105.999 153.895 106.158 151.919C106.213 151.238 106.222 150.568 106.221 149.886C106.218 149.159 106.192 148.961 106.189 148.962C104.706 149.417 103.102 154.006 102.488 155.271Z" fill="white"/>
<path d="M106.545 146.903C104.961 146.658 103.784 148.929 103.147 149.972C102.417 151.168 101.752 152.39 101.108 153.623C101.759 151.886 102.401 150.146 103.015 148.397C103.542 146.892 104.555 144.913 104.446 143.271C104.287 140.893 102.126 140.959 100.391 141.928C99.938 142.18 99.5402 142.486 99.1642 142.812C99.2557 142.026 99.247 141.263 99.077 140.552C98.131 136.603 94.4941 140.124 92.5694 142.509C92.9018 140.074 92.7023 137.345 90.018 137.69C86.8323 138.099 84.7528 144.06 83.6368 146.388C81.2271 151.417 78.255 156.138 74.7369 160.488C74.7816 159.029 74.7227 157.538 75.1674 156.193C75.805 154.264 76.7662 152.473 77.2185 150.472C78.2354 145.971 74.957 145.113 71.694 148.177C69.2995 150.426 68.1236 154.046 66.7067 156.907C65.1253 160.1 63.6442 163.435 63.4197 167.024C63.145 171.422 65.2136 175.167 63.7107 179.599C62.3276 183.676 59.5757 187.195 57.1496 190.723C56.972 190.749 56.7922 190.766 56.6167 190.8C53.152 191.476 50.5799 194.413 48.4438 196.953C45.4684 200.49 42.7416 204.255 39.8763 207.88C35.8089 213.024 32.1872 218.443 28.401 223.781C25.0442 228.515 21.7539 233.246 19.5938 238.637C19.2636 239.461 20.6074 239.801 20.942 239C23.4399 233.04 27.4594 227.983 31.1606 222.714C34.9217 217.361 38.6622 212.038 42.7808 206.935C45.948 203.011 48.6912 198.594 52.4131 195.144C54.7617 192.968 57.1464 192.244 59.7817 192.364C61.2508 192.43 62.7963 192.755 64.4594 193.242C68.6641 194.475 72.8819 196.516 76.315 199.219C76.9897 199.751 77.6567 200.314 78.2387 200.943C78.6517 201.391 78.8708 201.745 78.9667 202.094C78.9013 202.348 78.8359 202.604 78.7683 202.854C78.7531 202.912 78.7389 202.972 78.7226 203.029C78.6517 203.291 78.7291 203.5 78.8697 203.654C78.8337 203.822 78.7956 204.003 78.7552 204.203C78.255 206.699 77.5825 209.182 76.9166 211.639C74.2563 221.466 70.4166 230.928 67.0108 240.519C66.6522 241.53 68.2892 241.963 68.6456 240.96C71.7256 232.289 75.1881 223.727 77.7646 214.892C78.4294 212.612 79.0375 210.315 79.6021 208.007C80.0162 206.316 81.3382 203.441 80.9295 201.783C80.8903 201.623 80.8314 201.465 80.7628 201.307C82.0685 196.981 83.4766 193.158 87.5058 190.27C89.0513 189.161 90.6544 188.11 92.1072 186.884C95.6962 183.851 97.7757 179.53 99.7396 175.401C103.239 168.04 107.202 160.474 108.012 152.287C108.147 150.946 108.666 147.231 106.545 146.903ZM106.158 151.92C105.999 153.896 105.601 155.872 105.122 157.797C104.122 161.818 102.162 165.619 100.491 169.404C99.1173 172.513 97.7277 175.629 96.1202 178.631C94.4232 181.799 92.4604 184.492 89.5657 186.696C87.7718 188.062 85.7435 189.236 84.1 190.779C81.5671 193.157 80.4696 196.41 79.5977 199.677C78.3825 198.433 76.6562 197.356 75.5597 196.622C71.2755 193.754 65.1362 190.671 59.5136 190.571C62.3898 186.428 65.5613 182.077 66.2119 177.028C66.5966 174.042 65.3869 171.535 65.2507 168.613C65.073 164.791 66.649 161.193 68.3186 157.828C69.5328 155.381 70.5583 152.377 72.3076 150.26C73.1958 149.186 75.5761 146.861 75.5401 149.4C75.5292 150.188 75.1183 151.109 74.8742 151.851C74.3729 153.373 73.5391 154.841 73.1359 156.386C72.5441 158.652 73.4857 161.537 72.1484 163.551C71.5763 164.415 72.9114 165.445 73.6187 164.661C77.4005 160.469 80.9906 155.726 83.6248 150.753C85.18 147.818 86.3418 144.702 88.1565 141.894C88.8747 140.782 90.4616 138.331 90.9182 140.847C91.2659 142.761 89.9482 145.632 89.3248 147.395C87.4382 152.739 84.9119 157.814 81.687 162.511C81.0963 163.372 82.4586 164.415 83.166 163.627C86.4465 159.971 88.1685 155.417 90.0844 150.999C91.1569 148.527 92.2642 145.995 93.8707 143.801C94.1878 143.369 96.4864 140.326 97.222 140.803C97.6274 141.067 97.0542 143.369 96.9724 143.692C96.4635 145.69 95.6711 147.668 94.8504 149.612C92.2141 154.765 89.4654 160.009 87.362 165.389C86.9598 166.418 88.5259 166.922 89.0916 166.102C92.238 161.539 94.2347 156.087 96.2618 150.984C96.3894 150.663 96.5354 150.321 96.6891 149.968C97.5403 148.107 98.4754 146.192 99.7647 144.79C100.6 143.883 102.259 142.388 102.464 143.943C102.539 144.516 102.016 145.455 101.837 146.003C99.3102 153.697 96.2226 161.242 93.2342 168.773C92.8309 169.789 94.42 170.344 94.9725 169.49C97.961 164.874 100.106 160.173 102.487 155.272C103.102 154.006 104.705 149.418 106.187 148.964C106.191 148.963 106.217 149.161 106.219 149.888C106.221 150.569 106.212 151.239 106.158 151.92Z" fill="black"/>
<path d="M134.674 17.1558C131.902 14.1513 126.685 13.3232 123.832 16.6666C123.307 17.2805 123.997 18.4017 124.778 17.8656C127.627 15.9109 130.984 15.7031 133.509 18.2951C134.244 19.0507 135.381 17.9231 134.674 17.1558Z" fill="white"/>
<path d="M118.19 6.46284C113.023 1.30231 104.068 3.73017 102.286 10.7505C102.036 11.7342 103.413 12.0348 103.792 11.1566C106.058 5.90544 112.465 3.19088 117.026 7.60217C117.781 8.33223 118.934 7.20463 118.19 6.46284Z" fill="white"/>
<path d="M150.253 111.492C148.809 107.5 143.83 106.168 140.04 105.311C134.606 104.082 129.018 103.676 123.486 103.059C123.6 101.241 121.799 99.9991 119.861 99.4353C118.074 98.9162 116.578 98.7425 115.421 99.3191C115.23 97.1747 114.944 95.0549 114.974 92.8711C119.938 91.9545 124.519 89.3945 127.34 85.1175C131.893 78.2112 132.341 68.455 132.155 60.5032C132.077 57.1779 131.783 53.8708 131.346 50.5796C132.53 49.5266 133.551 48.1433 132.774 47.1126C132.491 46.7364 132.069 46.6448 131.694 46.7268C131.386 46.5542 131.053 46.4178 130.702 46.308C130.417 44.6432 130.092 42.9849 129.743 41.3297C130.179 41.3297 130.615 41.3148 131.05 41.3265C131.376 41.3361 131.773 41.076 131.832 40.7446C132.016 39.7193 131.624 39.2621 130.782 38.6716C130.345 38.16 129.689 37.8062 128.905 37.5728C128.458 35.6757 127.987 33.7839 127.488 31.9028C134.689 30.5802 140.975 25.1084 138.681 17.3794C138.587 17.0628 138.386 16.8646 138.146 16.7623C135.27 10.5338 127.973 9.30603 122.101 11.8469C122.948 9.89754 123.074 7.78302 121.842 5.61948C120.054 2.48287 116.351 0.474931 112.717 0.50797C105.595 0.572983 99.7924 5.35197 98.2056 11.5879C97.192 9.69611 95.6324 8.23705 93.1464 8.1358C89.8179 8.00044 88.4054 10.4475 87.8943 13.1727C86.1429 10.9537 83.3703 9.76005 80.6772 11.8874C79.3606 12.9276 78.5825 14.344 78.1214 15.8787C77.7672 14.3824 77.3988 12.8871 77.0719 11.3854C76.6359 9.37957 76.4332 6.99221 74.1107 6.36766C73.593 6.22804 73.096 6.54032 72.9336 7.02099C71.4318 11.4664 72.4258 16.1004 75.4218 19.4928C72.6492 19.6591 67.2445 17.7055 65.8996 17.2568C64.8926 16.9211 64.4664 18.4707 65.4615 18.8107C66.5546 19.1837 67.6543 19.5365 68.7638 19.8477C66.3236 20.5149 64.012 21.9505 62.3488 24.0128C57.524 29.9961 61.8006 35.356 67.541 37.7955C63.6512 39.6191 60.2345 43.9526 61.7865 47.8438C63.9073 53.1631 70.1338 50.0148 73.8273 47.4281C73.9505 51.2117 73.6475 55.5888 77.1667 57.9357C79.1492 59.2583 80.9246 58.2789 81.961 56.3765C83.4302 53.6779 83.6678 50.1331 83.6558 47.1361C83.6514 45.9264 83.6536 44.2457 83.307 42.7504C90.5111 44.9203 98.0595 40.2703 98.9325 32.8514C104.201 36.9674 111.918 34.417 113.875 28.1683C116.902 31.4424 121.608 32.602 126.145 32.1011C126.542 33.7989 126.936 35.5201 127.316 37.2563C125.065 36.9951 122.441 37.2936 121.017 37.4737C120.253 37.5696 118.967 37.5792 118.482 38.2943C118.018 38.9764 118.44 40.4494 118.484 41.2039C118.509 41.6345 118.879 42.1461 119.385 42.0853C122.286 41.7358 125.233 41.4192 128.17 41.3318C128.479 42.8751 128.77 44.4269 129.036 45.9872C127.759 45.8795 126.428 46.0213 125.342 46.2568C122.732 46.8238 120.618 48.2807 119.074 50.3921C118.732 50.861 119.081 51.6113 119.631 51.7307C122.998 52.4608 125.861 53.6214 129.283 52.0195C129.441 51.946 129.645 51.8309 129.874 51.687C130.995 60.8091 130.958 70.0324 128.249 78.7462C125.897 86.308 119.7 91.1765 111.534 91.3449C108.164 91.4142 104.853 90.7171 101.702 89.581C97.2443 87.9727 95.1212 85.2134 92.366 81.6025C91.7459 80.7904 90.5198 81.4661 90.9677 82.4019C94.354 89.4648 101.223 92.6004 108.971 93.193C110.47 93.307 111.982 93.2697 113.472 93.096C113.275 95.6038 113.232 98.4228 113.926 100.846C113.79 101.096 113.662 101.366 113.549 101.676C112.451 104.654 112.257 106.912 108.625 108.08C106.045 108.909 103.127 108.954 100.433 108.778C94.3006 108.376 88.5559 106.117 83.6547 102.535C83.5261 102.44 83.4008 102.406 83.2798 102.396C83.4444 102.03 83.2841 101.54 82.7774 101.597C80.5747 101.843 76.1804 100.989 74.9281 103.431C74.8682 103.548 74.8475 103.721 74.842 103.909C74.5902 104.19 74.4954 104.628 74.7995 104.994C74.7864 105.032 74.7733 105.068 74.7526 105.091C74.1063 105.832 71.4329 105.332 70.5229 105.365C67.2783 105.483 64.0305 105.861 60.872 106.606C50.0943 109.148 37.7406 115.22 30.5911 123.685C27.219 127.676 25.2681 132.498 23.7739 137.41C21.8143 143.847 20.0542 150.321 17.9388 156.715C13.4714 170.222 9.56638 183.655 6.61937 197.563C4.90936 205.633 3.35412 213.733 1.95363 221.86C0.767853 228.745 -0.844065 233.272 0.522633 240.211C0.729708 241.263 2.37432 240.818 2.16725 239.767C1.01634 233.946 2.18577 230.647 3.14595 224.867C4.10613 219.086 5.14477 213.318 6.26298 207.565C8.46888 196.211 10.762 184.808 14.0883 173.71C17.2925 163.023 21.1299 152.537 24.0704 141.771C25.3346 137.142 26.6348 132.451 29.0827 128.263C31.7616 123.679 35.7843 120.26 40.2103 117.33C50.8191 110.305 62.5156 106.217 75.3957 106.562C75.6104 106.567 75.8087 106.434 75.9166 106.253C82.7338 113.667 91.4244 117.354 101.703 118.079C107.476 118.486 112.164 117.866 116.861 114.304C120.188 111.781 122.604 108.645 122.728 104.821C127.505 105.371 132.311 105.737 137.046 106.586C140.597 107.222 147.038 108.099 148.443 111.977C148.844 113.086 150.658 112.611 150.253 111.492ZM74.43 8.84455C75.2376 10.0425 75.4785 12.4309 75.6965 13.3304C75.8948 14.1522 76.0932 14.9739 76.2915 15.7956C76.3875 16.1899 77.1602 18.3929 77.0065 18.7542L77.0054 18.7553C74.6665 15.9906 73.6944 12.3862 74.43 8.84455ZM121.533 50.3153C122.81 49.0108 124.453 48.171 126.332 47.8619C126.617 47.815 126.899 47.7937 127.175 47.7852C127.217 48.7508 127.234 49.7174 127.229 50.6852C126.717 50.8109 126.187 50.8909 125.654 50.9345C124.172 51.056 122.881 50.6756 121.533 50.3153ZM112.22 115.011C107.721 117.184 101.969 116.516 97.143 115.785C88.7161 114.51 81.8564 110.529 76.3112 104.3C77.3084 102.397 80.4854 102.977 82.6248 102.78C82.4362 103.119 82.446 103.596 82.8428 103.893C89.3536 108.751 97.6399 111.308 105.844 110.397C108.603 110.091 111.89 109.317 113.565 106.941C114.342 105.839 114.535 104.522 114.994 103.296C115.554 101.8 115.688 101.062 117.381 100.898C117.929 100.844 119.428 101.09 120.486 101.622C120.455 101.757 120.449 101.903 120.497 102.068C122.218 108.003 117.25 112.582 112.22 115.011Z" fill="black"/>
<path d="M52.2272 136.792C51.3476 141.044 50.7318 145.388 50.5204 149.732C49.5886 146.335 48.1031 142.968 47.0067 139.722C46.7168 138.863 45.3326 139.223 45.6116 140.098C47.0928 144.741 49.2725 149.668 49.582 154.556C49.8916 159.447 49.3292 164.507 48.9564 169.384C48.1957 179.326 45.9615 189.504 46.635 199.493C46.695 200.387 47.932 200.356 48.0333 199.493C48.6447 194.3 48.6502 189.041 49.193 183.834C49.739 178.597 50.394 173.377 50.8038 168.125C51.1798 163.316 51.8468 158.222 51.2713 153.412C51.2692 153.391 51.2637 153.369 51.2604 153.346C51.4762 153.268 51.6572 153.085 51.6888 152.799C52.2566 147.511 52.759 142.231 53.4598 136.955C53.5503 136.273 52.3667 136.119 52.2272 136.792Z" fill="black"/>
<path d="M67.2965 54.4773C64.914 56.0024 64.5337 59.3821 64.7909 61.8984C65.3631 67.4959 70.1116 71.9136 75.6493 70.3564C76.0601 75.2846 76.4536 80.215 76.871 85.1432C77.2873 90.0692 77.2514 95.2969 78.3227 100.129C78.5233 101.034 79.8703 100.778 79.9128 99.9192C80.1635 94.8567 79.2088 89.5512 78.7815 84.5005C78.3467 79.3602 77.8824 74.222 77.4454 69.0818C77.3822 68.3432 76.6955 67.9733 76.0155 68.2792C71.45 70.3341 67.6671 66.8148 66.7952 62.5901C66.4889 61.1033 66.3069 58.8747 67.0295 57.469C69.0926 53.4542 72.0429 55.4472 74.4995 57.065C75.0814 57.4487 75.5828 56.5535 75.0411 56.1591C72.8428 54.5594 69.9819 52.7582 67.2965 54.4773Z" fill="black"/>
<path d="M71.885 66.7363C73.7824 65.3913 75.7605 64.56 78.0514 64.1113C78.919 63.9407 78.8362 62.8856 78.2716 62.4636C76.2009 60.916 74.1541 59.4037 71.922 58.0789C71.0109 57.5386 70.1978 58.9156 71.0904 59.4698C72.6915 60.4641 74.2783 61.5193 75.7551 62.6948C73.923 63.1904 72.2566 64.155 70.939 65.5373C70.3646 66.1394 71.1362 67.2671 71.885 66.7363Z" fill="black"/>
<path d="M110.927 64.6895C110.353 64.9315 110.639 65.9077 111.249 65.8502C113.023 65.685 116.588 65.5049 117.907 64.2323C118.986 63.191 118.801 61.2279 118.743 59.8754C118.49 53.9464 115.764 48.4107 115.184 42.5116C115.091 41.5577 113.635 41.5162 113.632 42.5116C113.624 46.6937 114.963 50.5167 115.983 54.5337C116.482 56.499 117.586 59.577 116.925 61.5636C116.191 63.7708 112.819 63.8934 110.927 64.6895Z" fill="black"/>
<path d="M110.703 72.0878C108.072 70.7215 105.123 67.5433 104.422 64.6827C104.192 63.7438 102.763 64.1456 102.953 65.0781C104.569 73.0001 114.503 77.4541 121.139 72.3958C121.707 71.9631 121.09 71.0167 120.445 71.2299C117.083 72.3372 114.219 73.9124 110.703 72.0878Z" fill="black"/>
<path d="M105.618 40.5478C105.563 40.3485 105.437 40.2302 105.287 40.1705C105.254 40.1535 105.209 40.1514 105.17 40.1418C105.146 40.1375 105.123 40.1258 105.098 40.1247C105.073 40.1215 105.054 40.1087 105.027 40.1077C102.214 39.9979 99.291 40.5628 96.6066 41.3259C94.1697 42.0186 91.7632 42.9949 89.6358 44.3591C88.6745 44.9762 86.2921 46.2008 86.3705 47.5884C86.5591 50.8977 91.7371 48.1064 92.67 47.7515C96.8736 46.1517 101.443 45.0753 105.936 44.6181C106.327 44.5786 106.639 44.2664 106.527 43.8592C106.224 42.7551 105.921 41.6509 105.618 40.5478Z" fill="black"/>
<path d="M105.379 48.818C99.8055 47.9995 94.3223 49.9595 89.4125 52.3575C88.7553 52.6783 88.9111 53.5192 89.4125 53.8741C94.0531 57.1578 99.5951 58.6147 105.016 56.2562C106.446 55.6337 110.182 53.8176 110.607 51.8267C110.741 51.653 110.801 51.4377 110.699 51.1958C110.007 49.5641 106.86 49.0355 105.379 48.818ZM91.6881 53.2123C95.1713 51.5805 98.9783 50.3219 102.856 50.308C102.985 51.8299 103.148 53.3487 103.352 54.8621C99.3227 56.2764 95.3272 55.33 91.6881 53.2123Z" fill="black"/>
<path d="M95.6181 68.0358C97.4294 66.4179 97.9624 63.6234 95.3892 61.9992C93.1397 60.5785 89.3742 61.7807 88.4587 64.2608C87.7906 66.0705 88.6636 68.3875 90.4695 69.092C91.3665 69.4416 92.3714 69.3947 93.3141 69.2039C94.1871 69.0281 94.9816 68.6049 95.6181 68.0358Z" fill="#BA1B2E"/>
<path d="M128.885 62.5881C127.455 61.6406 126.794 59.7467 128.419 58.3601C129.839 57.1472 132.586 57.6109 133.482 59.2479C134.135 60.4427 133.768 62.1426 132.583 62.813C131.994 63.1455 131.289 63.2126 130.612 63.1732C129.985 63.137 129.387 62.9217 128.885 62.5881Z" fill="#BA1B2E"/>
<path d="M224.369 179.927C223.53 178.631 221.102 178.807 219.775 178.786C218.012 178.76 215.385 178.106 214.236 179.688C213.902 180.148 214.461 180.862 215.005 180.665C216.248 180.215 217.497 180.474 218.791 180.511C219.664 180.536 221.853 180.272 222.56 180.823C223.618 181.648 220.607 183.552 219.888 183.832C218.304 184.451 216.564 184.596 214.876 184.778C211.105 184.256 207.167 186.104 203.722 187.712C201.232 188.875 194.534 190.883 198.2 194.627C198.911 195.353 199.732 195.694 200.622 195.807C198.59 196.563 196.253 197.686 195.984 199.877C195.747 201.814 197.136 202.469 198.869 202.588C198.157 202.809 197.48 203.097 196.884 203.532C195.793 204.33 195.073 205.718 195.673 207.047C196.401 208.659 198.414 208.692 199.969 208.778C200.235 208.793 200.503 208.794 200.77 208.8C199.848 209.001 198.982 209.311 198.354 209.888C195.025 212.944 201.976 214.919 204.024 215.153C208.14 215.625 214.602 215.505 217.763 212.418C220.282 209.96 219.974 206.617 216.254 206.273C216.153 206.219 216.036 206.181 215.899 206.165C216.948 205.656 217.919 205.007 218.745 204.149C218.877 204.013 218.93 203.847 218.942 203.681C221.177 200.839 219.626 198.492 216.723 198.086C218.382 197.2 220.077 195.835 219.864 193.813C219.69 192.149 218.587 191.339 217.242 191.042C219.368 189.643 220.797 187.826 218.691 186.104C219.957 185.827 221.173 185.405 222.238 184.656C223.537 183.74 225.453 181.601 224.369 179.927ZM216.692 196.133C215.977 196.7 214.96 197.047 214.119 197.357C213.199 197.696 212.251 197.944 211.311 198.222C208.929 198.927 206.556 199.651 204.122 200.176C202.143 200.602 193.951 201.41 199.916 198.082C201.683 197.098 203.865 196.683 205.741 195.922C208.716 194.716 211.567 193.478 214.653 192.557C214.749 192.529 214.827 192.481 214.9 192.426C215.498 192.401 216.096 192.41 216.693 192.483C218.17 194.161 218.169 195.379 216.692 196.133ZM216.32 211.48C215.212 212.4 213.744 212.741 212.353 213.029C209.29 213.663 205.864 213.876 202.786 213.22C202.325 213.122 201.775 213.024 201.347 212.82C200.623 212.736 200.174 212.373 200.001 211.731C199.426 211.137 199.606 210.81 200.542 210.749C201.315 210.241 202.741 210.335 203.611 210.193C207.757 209.518 211.653 208.223 215.86 207.823C215.94 207.815 216.002 207.786 216.069 207.765C218.461 208.061 217.729 210.311 216.32 211.48ZM217.898 202.823C217.85 202.845 217.801 202.855 217.753 202.89C214.893 204.99 211.718 205.802 208.23 206.321C206.086 206.64 203.9 207.045 201.73 207.08C200.221 207.104 195.606 207.063 198.76 204.496C199.536 203.864 201.104 203.829 202.048 203.569C203.38 203.201 204.631 202.647 205.933 202.181C207.794 201.514 209.687 200.94 211.601 200.435C212.542 200.186 213.488 199.924 214.444 199.738C216.684 199.3 219.855 200.132 217.898 202.823ZM207.402 187.93C210.538 186.593 213.876 185.564 217.153 186.923C217.187 186.982 217.214 187.043 217.267 187.096C219.591 189.455 209.253 192.166 208.25 192.432C206.843 192.803 205.464 193.28 204.048 193.615C202.567 193.965 196.783 194.935 200.921 190.923C202.261 189.622 205.649 188.676 207.402 187.93Z" fill="black"/>
<path d="M204.046 193.616C205.463 193.281 206.841 192.804 208.247 192.433C209.251 192.168 219.589 189.456 217.265 187.098C217.213 187.044 217.184 186.984 217.151 186.924C213.873 185.565 210.537 186.594 207.399 187.931C205.648 188.677 202.26 189.623 200.917 190.924C196.781 194.936 202.565 193.966 204.046 193.616Z" fill="white"/>
<path d="M214.899 192.425C214.826 192.48 214.748 192.528 214.652 192.556C211.566 193.477 208.715 194.715 205.74 195.921C203.864 196.682 201.682 197.096 199.916 198.081C193.95 201.409 202.141 200.601 204.122 200.175C206.554 199.651 208.928 198.925 211.31 198.221C212.25 197.943 213.199 197.694 214.118 197.356C214.959 197.046 215.976 196.699 216.691 196.132C218.168 195.377 218.169 194.161 216.693 192.481C216.095 192.409 215.498 192.4 214.899 192.425Z" fill="white"/>
<path d="M214.445 199.737C213.488 199.923 212.542 200.185 211.602 200.434C209.688 200.939 207.795 201.512 205.933 202.181C204.632 202.647 203.381 203.202 202.049 203.568C201.104 203.828 199.537 203.864 198.761 204.495C195.607 207.063 200.221 207.103 201.731 207.079C203.901 207.044 206.087 206.639 208.231 206.32C211.718 205.802 214.893 204.989 217.754 202.889C217.802 202.854 217.851 202.845 217.899 202.822C219.854 200.132 216.684 199.3 214.445 199.737Z" fill="white"/>
<path d="M216.068 207.765C216 207.786 215.939 207.815 215.859 207.822C211.652 208.223 207.756 209.518 203.61 210.193C202.74 210.335 201.314 210.241 200.541 210.749C199.606 210.81 199.425 211.137 200 211.731C200.173 212.372 200.622 212.736 201.346 212.82C201.772 213.025 202.323 213.122 202.785 213.22C205.863 213.876 209.289 213.663 212.352 213.029C213.741 212.741 215.21 212.4 216.319 211.48C217.729 210.311 218.461 208.061 216.068 207.765Z" fill="white"/>
</svg>
